<svg xmlns="http://www.w3.org/2000/svg" xmlns:xlink="http://www.w3.org/1999/xlink" width="730" height="1580" viewBox="0 0 730 1580">
  <defs>
    <clipPath id="clip-_002_-_Splashscreen_1">
      <rect width="730" height="1580"/>
    </clipPath>
  </defs>
  <g id="_002_-_Splashscreen_1" data-name="002 - Splashscreen – 1" clip-path="url(#clip-_002_-_Splashscreen_1)">
    <rect width="730" height="1580" fill="#fc7272"/>
    <path id="Union_1" data-name="Union 1" d="M3138.229,6639.3l3.811.847-.12.43Zm-3401.666-755.68,108.445-383.18L3138.229,6639.3Zm3403.276,745.99,3.54,1.643-.21.394ZM-21.07,5162.958l187.993-351.066L3139.839,6629.608ZM3143.479,6620.48l3.113,2.368-.29.34Zm77.091,1.449,3.83-.755-3.718,1.187ZM6544.01,5561.65l99.2,385.678L3224.4,6621.174Zm-6174-1050.728,258.815-302.658L3143.479,6620.48ZM3148.992,6612.346l2.536,2.983-.357.27Zm66.453,2.165,3.584-1.56-3.382,1.958ZM6234.708,4867.083,6414.2,5222.568,3219.029,6612.951ZM891.657,3957.771l317.628-240.209L3148.992,6612.346ZM3156.128,6605.6l1.833,3.446-.405.187Zm52.724,2.765,3.159-2.285-2.877,2.63Zm2574.98-2353.491,251.459,308.8L3212.01,6606.075Zm-4264.165-725.7,361.7-166.614L3156.128,6605.6ZM3164.539,6600.523l1.051,3.753-.435.095Zm36.553,3.24,2.6-2.911-2.25,3.189Zm-27.476-2.506.224-3.918.224,3.918Zm18.911-.32,1.914-3.4-1.514,3.6Zm-17.931.087.317-3.9.13,3.91ZM5212.3,3753.419,5524.063,4001.2,3203.69,6600.852ZM2224.893,3245l388.99-85.285,550.656,3440.8ZM3183.558,6600.01l1.143-3.735-.71,3.841ZM4546.648,3386l357.59,175.266-1709.8,3036.27ZM2974.614,3118.466h84.952l-.133-4.013,166.771,4.013h146.641l-.2,3.524,84.9,2.043L3174.914,6597.126l-.389-11.744-.684,11.957Zm843.135,51.2,386.828,94.618L3184.7,6596.275Z" transform="translate(-2777.925 -4973.516)" fill="#fa5050" stroke="rgba(0,0,0,0)" stroke-miterlimit="10" stroke-width="1"/>
    <g id="Calque_1-2" transform="translate(-257.769 218.497)">
      <g id="_1UcCrY" transform="translate(0 0.003)">
        <path id="Tracé_118" data-name="Tracé 118" d="M0,1354.552c2.428-.7,4.857-1.388,7.314-2.1-3.754-9.359-1.108-13.467,8.325-15.09,14.873-2.554,29.66-5.588,44.459-8.542,17.85-3.565,35.8-6.742,53.481-11.028,23.627-5.725,46.979-12.576,70.554-18.53,19.558-4.942,39.288-9.188,58.892-13.93,10.633-2.571,21.078-6,31.786-8.171,8.314-1.686,16.879-2.3,25.369-2.891,15.821-1.1,31.683-1.651,47.5-2.8,8.491-.617,16.907-2.337,25.4-2.926,7.314-.5,14.69-.1,22.038-.1v-2.463c-12.822,0-25.672-.543-38.454.131-18.4.96-36.831,2.183-55.1,4.463-15.307,1.908-30.42,5.417-45.59,8.365-9.822,1.908-19.661,3.8-29.363,6.205-41.928,10.388-83.787,21.027-125.715,31.4a89.113,89.113,0,0,1-26.032,2.96c4.394-1.64,8.685-3.668,13.2-4.857,30.569-8.051,61.183-15.907,91.781-23.855,21.061-5.468,41.922-11.93,63.223-16.2,21.684-4.343,43.7-7.908,65.743-9.382,40.534-2.714,81.176-3.965,121.8-5.125,12.29-.354,24.649,1.594,37.585,2.537-2.548-5.822-3.777-11.045-6.834-14.776-2.188-2.668-6.788-4.588-10.371-4.691-22.592-.64-45.2-.651-67.806-.966a10.168,10.168,0,0,1-6.959-2.646h82.273c-6.491-23.312-7.868-45.784-6.348-68.977,1.331-20.255-.383-40.865-2.531-61.126-1.177-11.107-6.674-21.7-9.011-32.774-1.411-6.679-.657-13.85-.583-20.792.063-6.039,1.251-12.142.674-18.1-.817-8.439-2.605-16.718,7.222-21.929-11.011-11.313-6.559-23.929-6.125-36,.074-2.005,1.074-4.605.177-5.931-7.971-11.685-9.319-25.186-11.782-38.557-2.446-13.308-6.777-26.255-9.479-39.522-3.925-19.267-6.851-38.74-10.8-58-1.514-7.382-4.657-14.433-7.119-21.615-.3-.874-1.3-1.571-1.428-2.428-2.137-15.044-3.52-30.232-6.508-45.1-1.891-9.4-6.137-18.335-9.353-27.466-.52-1.468-1.606-2.845-1.731-4.325-1.1-12.667-3.554-25.461-2.657-38,1.268-17.678-2.183-33.78-8.8-49.927-9.748-23.8-5.068-49.122-6.171-73.816-.606-13.513,2.988-27.489-5.234-40.088-1.068-1.64-.708-4.4-.577-6.611.994-16.193,3.183-32.4,2.851-48.562-.314-15.364-1.274-31.226-5.411-45.893-8.833-31.334-14.884-62.937-16.724-95.4-.914-16.136-1.88-32.152-8.874-47.316-1.914-4.148-.96-10.153.051-15.022,3.291-15.787,6.417-31.677,11.079-47.087,7.394-24.421,20.455-45.139,43.7-57.721,9.851-5.331,19.747-5.76,31.032-2.611,10.5,2.92,22.992,4.8,32.906,1.7,7.685-2.4,12.725-13.21,18.987-20.244,1.7-1.9,3.6-5.262,5.32-5.211,5.7.183,9.822-1.428,10.085-7.325.3-6.645,1.966-15.313-1.406-19.644-10-12.839-11.856-26.821-10.77-41.951.469-6.5,4.045-8.976,10.016-5.794,2.7-10.8,4.691-20.758,7.708-30.392C499.9,11.126,530.371-2.13,558.7.281c36.46,3.1,69.645,46.676,61.5,82.021-1.669,7.228,1.354,15.484,1.857,23.3.223,3.434.743,7.7-.926,10.256C612.581,129,610.3,144.5,604.187,158.456c-3.845,8.776-10.228,16.536-16.05,24.324-3.194,4.274-5.588,8.125-1.28,12.553,9.788,10.079,19.815,19.918,30.409,30.529,5.8-8.216,10.4-14.73,15.667-22.187H620.906c9.1-8.691,18.781-17.936,28.46-27.18l-1.937-2.588q-10.739,3.72-21.484,7.434l-1.726-2.086c11.388-8.668,23.9-16.6,23.918-33.488-4.84,2.56-8.948,4.731-15.227,8.056,5.222-9.571,9.034-16.559,13.81-25.318-6.908,1.52-11.942,2.628-17.067,3.754,8.588-14.29,15.781-28.318,24.935-40.928,9.4-12.959,20.57-24.661,31.237-36.665,7.9-8.9,15.016-19.227,24.644-25.712,20.221-13.61,43.9-17.456,64.309-3.394C786.743,33.8,800.1,44.415,805.1,60.207c7.434,23.461,14.3,47.1,21.65,70.594,2.4,7.668,5.542,15.107,6.462,23.815-3.388-3.931-6.776-7.862-11.816-13.707,2.086,19.25,9.342,33.763,17.324,47.87,1.434,2.531,5.765,3.445,8.788,5.051,19.8,10.5,30.277,27.872,32.94,49.213,2.548,20.393,4.537,41.236,3.08,61.623-1.051,14.707-7.274,29.323-12.736,43.379-10.285,26.478-22.049,52.378-32.483,78.8-6.371,16.136-12.622,32.523-16.536,49.35-1.937,8.319,1.348,17.918,2.594,26.889,1.251,8.994,2.525,18.016,4.468,26.878C833.442,551,840.664,571.74,842.772,593c3.051,30.774,5.051,62.017-13.262,90.4-9.582,14.844-17.027,31.117-24.844,47.036-15.433,31.42-11.148,63.492-2.943,95.837,4.348,17.141,7.039,34.7,10.885,51.978.731,3.285,2.657,7.833,5.251,8.953,32.111,13.862,64.417,27.289,96.786,40.545,3.891,1.594,7.308,1.565,11.319-3.017,6.554-7.491,13.559-16.713,26.186-13.427,2.108.548,4.982.423,6.205,1.783,9.508,10.542,21.815,10.382,34.431,9.948,2.594-.091,5.245,1.617,7.874,2.5-.234,1.183-.468,2.36-.7,3.542-6.857,0-13.73.274-20.57-.069-8.062-.406-10.308,3.5-6.514,9.759,7.725,12.73,16.084,25.106,31.214,30.472,6.216,2.206,9.113,6.519,10.045,13.513,2.457,18.444,1.211,36.065-8.925,52.081-3.125,4.943-7.565,9.177-11.948,13.13-1.543,1.394-4.754,1.48-7.136,1.3-5.3-.4-16.581-12.639-18.147-17.661-2.617-8.422-6.051-16.593-9.4-24.763-.474-1.16-2.326-2.148-3.72-2.491-31.249-7.737-62.475-15.57-93.826-22.861-6.331-1.474-13.159-.811-19.1-1.1,1.377,38.939,2.811,76.776,3.885,114.624.091,3.32,4.822,38.488,8.639,46.03,4.514,8.925,9.719,17.5,14.719,26.175,3.223,5.588,6.617,11.079,9.931,16.616.16.269.16.783.366.863,15.553,6.188,5.822,16.587,4.822,26.026-1.9,17.93-2.577,35.991-3.834,53.99a22.481,22.481,0,0,1-2.623,9.965c-8.8-16.239-.2-35.94-12.9-50.63-13.325,12.016-23.289,55.789-14.633,62.8-6.308,2.937-12.736,5.925-21.6,10.051,13.919,2.451,26.083,4.594,39.071,6.885,0,1.228,8.611,7.508,12.565,7.439,3.245-.052,6.668-3.691,9.651-3.263,19.381,2.788,38.625,6.5,57.995,9.376,7.239,1.074,14.724.36,22.038,1.057,13.136,1.251,26.238,2.914,39.339,4.485q34.137,4.1,68.257,8.291c14.41,1.743,28.826,3.457,44.168,5.291-.989,2.171-1.783,3.914-2.583,5.668,1.708.6,4.022,1.411,6.337,2.228-.046.731-.091,1.469-.143,2.2h-26.432c-.074,1.006-.143,2.006-.217,3.011q39.4,5.8,78.7,11.588c-2.994,4.5-32.86,3.462-55.738-2.126.1.543.16,1.514.291,1.52,15.953,1.068,28.98,13.759,45.836,11.49a9.174,9.174,0,0,1,6.931,2.108c.977,1-.349,6.148-.577,6.142a265.121,265.121,0,0,1-31.38-2.211q-8.7,2.091-17.364,4.171c7.485,3.994,15.09,8.045,23.947,12.771-5.72,6.354-9.639,10.7-14,15.547-5.657-5.2-10.056-9.233-14.913-13.7-4.005,5.611-4.388,9.639.371,15.256,3.794,4.474,4.971,11.165,7.291,16.833H1109.52c-.549.834-1.1,1.668-1.651,2.508,8.976,10.136,17.953,20.278,27.2,30.723-16.244,4.251-23.7,1.863-41.442-13.307-2.623,3.617-5.188,7.142-7.839,10.793-33.2-2.485-67.1-4.959-100.991-7.571-22.512-1.737-45.036-3.463-67.52-5.548q-61.212-5.682-122.389-11.8c-36.688-3.628-73.319-7.834-110.042-11.062-29.443-2.588-58.955-4.845-88.484-5.9-38.831-1.388-77.725-2.28-116.567-1.811-25.712.309-51.436,2.885-77.068,5.337-32.94,3.154-65.789,7.314-98.694,10.833-20.164,2.16-40.351,4.183-60.566,5.834-27.609,2.263-55.224,4.566-82.884,5.971-17.233.874-34.557.166-51.835.029a20.667,20.667,0,0,1-5.228-1.194q167.454-16.953,336.148-34.026c-31.3-8.959-61.84-2.211-92.472,2.388-14.736,2.211-29.409,5.114-44.219,6.525-35.151,3.342-70.365,6.057-105.562,8.885-26.655,2.137-53.332,3.994-79.987,6.125-5.668.452-11.33,2.463-16.907,2.149a176.387,176.387,0,0,1-35.151-5.462c5.588,0,11.2.337,16.759-.057,35.837-2.537,71.668-5.1,107.482-7.936,24.609-1.954,49.224-4,73.759-6.708,20.118-2.217,40.105-5.6,60.183-8.228,21.61-2.828,43.259-5.377,64.886-8.079a9.451,9.451,0,0,0,2.343-.646c1.9-6.04,3.5-11.125,5.394-17.13-1.823-.194-4.217-.931-6.468-.623-21.261,2.885-42.471,6.188-63.766,8.822-7.674.948-15.541.246-23.307.617-2.651.126-5.217,1.5-7.879,1.846-25.152,3.3-50.338,6.382-75.473,9.822-5.365.731-10.491,3.245-15.856,3.92-21.078,2.651-42.231,4.708-63.3,7.365-9.325,1.177-18.5,4.3-27.815,4.64-9.291.337-18.656-1.783-28-2.7-7.548-.737-15.159-2.154-22.661-1.737-16.336.908-16.313,1.308-35.911-5.354,4.937-.76,8.056-1.3,11.2-1.708,3.485-.446,7.211-.154,10.416-1.32,2.977-1.08,5.417-3.645,8.091-5.559-2.148-2.417-4.08-6.651-6.474-6.931-9.051-1.069-18.25-1.017-27.4-1.063-6.954-.04-6.954.177-7.982-5.685l56.264-15.833c-11.873-.983-24.2-1.36-36.317-3.188-11.3-1.708-22.364-4.954-33.529-7.525v-3.84ZM639.59,909.813c4.028,27.752-8.788,49.161-23.158,70.537-7.5,11.148-12.2,24.409-5.9,37.843,4.245,9.056,4.377,17.4,1.32,26.449-5.959,17.661-6.914,36.334-1.794,53.561,4.177,14.073,4.182,27.169,2.583,41-.651,5.651-2.606,11.993-.84,16.9,3.565,9.9-.566,16.833-5.005,24.752-2.3,4.1-3.468,10.125-2.371,14.6,2.977,12.119,7.994,23.729,11.142,35.82,2.857,10.97,4.834,21.8,16.05,28.055,9.822,5.479,18.5,14.6,28.883,17.13,16.73,4.074,34.471,3.937,51.767,5.8,14.833,1.594,29.769,2.777,44.4,5.5,10.245,1.908,17.81.331,22.821-9.559l-5.6-3.4c4.045-.983,8.622-.68,10.4-2.766,10.108-11.873,19.621-24.067,17.753-41.431-1.126-10.439-.343-21.067-1.12-31.557-.914-12.3-1.04-24.964-4.228-36.728-10.936-40.294-23.547-80.124-34.546-120.4-6.331-23.186-10.6-46.933-16.324-70.3-.7-2.857-4.32-6.262-7.245-7.085-10.348-2.92-21.1-4.388-31.472-7.239-13.37-3.674-27.032-6.988-39.631-12.576-14.553-6.457-22.49-19.558-27.866-34.911Zm-49.23,494.305c5.811-1.189,11.159-.657,13.45-3.051,8.108-8.462,17.987-6.451,27.552-6.114,8.188.286,16.336,1.577,24.512,2.286,23.438,2.04,46.882,3.954,70.314,6.017,25.049,2.2,50.07,4.725,75.148,6.588,4.822.36,9.862-1.514,14.73-2.657,4.1-.96,8.222-3.685,12.142-3.36,40.448,3.377,80.862,7.136,121.269,10.965,16.433,1.56,32.809,3.788,49.247,5.274,14.445,1.309,28.94,2.005,43.413,2.971-7.331-2.148-14.661-4.16-22.129-4.988-20.69-2.286-41.459-3.857-62.155-6.114-33.117-3.611-66.183-7.668-99.3-11.29-19-2.074-38.042-3.777-57.086-5.4-7.434-.634-14.964-.212-22.381-.943-16.987-1.674-33.929-3.823-50.9-5.662-9.776-1.063-19.576-1.891-29.363-2.839-19.5-1.886-38.991-3.874-58.5-5.623-5.982-.537-12.022-.354-18.027-.629-10.788-.5-21.609-.754-32.34-1.834-3.554-.36-8.976-2.171-9.913-4.674-2.394-6.417,2.823-7.639,8.074-8.251,1.657-.194,3.114-2.091,4.668-3.211-1.668-1.365-3.2-3.68-5.022-3.943-10.993-1.56-15.444,3.457-17.461,19.518H533.948q0,1.8-.011,3.6h37.437q-.017,1.286-.034,2.571H537.467q-22.632.005-33.048,8.451c4.182.2,7.576.48,10.97.5,21.409.137,42.825.366,64.234.234,6.971-.04,12.273.971,10.725,11.593Zm69.731-843.338,2.491.308c.908-6.468,1.577-12.976,2.783-19.393,2.965-15.77,5.719-31.609,9.428-47.213,3.274-13.787,8.091-27.2,11.548-40.951,3.56-14.164,2.514-14.724-11.782-14.319a23.436,23.436,0,0,1-5.685-.508c-14.49-3.228-17.056-.669-20.8,13.513-5.325,20.17-1.108,39.8,1.617,59.429,2.3,16.536,6.851,32.757,10.41,49.121ZM468.376,1403.856h96.494c-.04-1.029-.08-2.057-.114-3.085C532.719,1396.622,500.779,1395.137,468.376,1403.856Zm596.451,19.158q-.214,1.894-.423,3.788l35.671,3.343c.091-.834.177-1.668.269-2.5l-35.511-4.628Z" transform="translate(0 -0.003)" fill="#c40e0e"/>
      </g>
    </g>
    <g id="Groupe_73" data-name="Groupe 73" transform="translate(-276.101 74.992)">
      <path id="Tracé_117" data-name="Tracé 117" d="M482.818,101.582c-10.627-7.536-33.028-19.3-33.028-32.314,0-19.69,28.347-22.943,33.028-4.03,4.663-18.913,33.019-15.651,33.019,4.03,0,13.012-22.41,24.787-33.019,32.314M462.07,76.6a16.527,16.527,0,0,1-2.566-3.633,8.806,8.806,0,0,1-1.012-3.47,9.865,9.865,0,0,1,1.2-5.774,8.909,8.909,0,0,1,4.012-3.371,2.3,2.3,0,1,0-1.916-4.193,13.381,13.381,0,0,0-6.036,5.151,14.259,14.259,0,0,0-1.852,8.431,13.009,13.009,0,0,0,1.482,5.3,21.492,21.492,0,0,0,3.28,4.645A2.3,2.3,0,1,0,462.07,76.6Zm27.995-8.241a11.649,11.649,0,0,1,3.244-5.765,11.226,11.226,0,0,1,5.883-2.855,2.3,2.3,0,0,0-.768-4.545,15.9,15.9,0,0,0-8.268,4.048,16.2,16.2,0,0,0-4.572,8.024,2.3,2.3,0,0,0,4.473,1.1Z" transform="translate(-9.658 74.426)" fill="#c40e0e" fill-rule="evenodd"/>
      <path id="Tracé_125" data-name="Tracé 125" d="M478.763,95.574c-9.322-6.611-28.973-16.932-28.973-28.347,0-17.273,24.867-20.126,28.973-3.535,4.09-16.591,28.965-13.729,28.965,3.535,0,11.415-19.659,21.743-28.965,28.347m-18.2-21.918a14.5,14.5,0,0,1-2.251-3.187,7.725,7.725,0,0,1-.888-3.044,8.654,8.654,0,0,1,1.054-5.065A7.816,7.816,0,0,1,462,59.4a2.022,2.022,0,1,0-1.681-3.678,11.738,11.738,0,0,0-5.3,4.518,12.508,12.508,0,0,0-1.625,7.4,11.412,11.412,0,0,0,1.3,4.645,18.853,18.853,0,0,0,2.877,4.074,2.015,2.015,0,0,0,2.988-2.7Zm24.557-7.229a10.219,10.219,0,0,1,2.846-5.057,9.848,9.848,0,0,1,5.16-2.5,2.022,2.022,0,0,0-.674-3.987,13.948,13.948,0,0,0-7.253,3.551,14.213,14.213,0,0,0-4.011,7.039,2.021,2.021,0,0,0,3.924.967Z" transform="translate(437.342 -38.169)" fill="#c40e0e" fill-rule="evenodd"/>
      <path id="Tracé_126" data-name="Tracé 126" d="M478.763,95.574c-9.322-6.611-28.973-16.932-28.973-28.347,0-17.273,24.867-20.126,28.973-3.535,4.09-16.591,28.965-13.729,28.965,3.535,0,11.415-19.659,21.743-28.965,28.347m-18.2-21.918a14.5,14.5,0,0,1-2.251-3.187,7.725,7.725,0,0,1-.888-3.044,8.654,8.654,0,0,1,1.054-5.065A7.816,7.816,0,0,1,462,59.4a2.022,2.022,0,1,0-1.681-3.678,11.738,11.738,0,0,0-5.3,4.518,12.508,12.508,0,0,0-1.625,7.4,11.412,11.412,0,0,0,1.3,4.645,18.853,18.853,0,0,0,2.877,4.074,2.015,2.015,0,0,0,2.988-2.7Zm24.557-7.229a10.219,10.219,0,0,1,2.846-5.057,9.848,9.848,0,0,1,5.16-2.5,2.022,2.022,0,0,0-.674-3.987,13.948,13.948,0,0,0-7.253,3.551,14.213,14.213,0,0,0-4.011,7.039,2.021,2.021,0,0,0,3.924.967Z" transform="translate(-112.658 4.091)" fill="#c40e0e" fill-rule="evenodd"/>
      <path id="Tracé_121" data-name="Tracé 121" d="M482.818,101.582c-10.627-7.536-33.028-19.3-33.028-32.314,0-19.69,28.347-22.943,33.028-4.03,4.663-18.913,33.019-15.651,33.019,4.03,0,13.012-22.41,24.787-33.019,32.314M462.07,76.6a16.527,16.527,0,0,1-2.566-3.633,8.806,8.806,0,0,1-1.012-3.47,9.865,9.865,0,0,1,1.2-5.774,8.909,8.909,0,0,1,4.012-3.371,2.3,2.3,0,1,0-1.916-4.193,13.381,13.381,0,0,0-6.036,5.151,14.259,14.259,0,0,0-1.852,8.431,13.009,13.009,0,0,0,1.482,5.3,21.492,21.492,0,0,0,3.28,4.645A2.3,2.3,0,1,0,462.07,76.6Zm27.995-8.241a11.649,11.649,0,0,1,3.244-5.765,11.226,11.226,0,0,1,5.883-2.855,2.3,2.3,0,0,0-.768-4.545,15.9,15.9,0,0,0-8.268,4.048,16.2,16.2,0,0,0-4.572,8.024,2.3,2.3,0,0,0,4.473,1.1Z" transform="translate(377.342 42.36)" fill="#c40e0e" fill-rule="evenodd"/>
      <path id="Tracé_122" data-name="Tracé 122" d="M482.818,101.582c-10.627-7.536-33.028-19.3-33.028-32.314,0-19.69,28.347-22.943,33.028-4.03,4.663-18.913,33.019-15.651,33.019,4.03,0,13.012-22.41,24.787-33.019,32.314M462.07,76.6a16.527,16.527,0,0,1-2.566-3.633,8.806,8.806,0,0,1-1.012-3.47,9.865,9.865,0,0,1,1.2-5.774,8.909,8.909,0,0,1,4.012-3.371,2.3,2.3,0,1,0-1.916-4.193,13.381,13.381,0,0,0-6.036,5.151,14.259,14.259,0,0,0-1.852,8.431,13.009,13.009,0,0,0,1.482,5.3,21.492,21.492,0,0,0,3.28,4.645A2.3,2.3,0,1,0,462.07,76.6Zm27.995-8.241a11.649,11.649,0,0,1,3.244-5.765,11.226,11.226,0,0,1,5.883-2.855,2.3,2.3,0,0,0-.768-4.545,15.9,15.9,0,0,0-8.268,4.048,16.2,16.2,0,0,0-4.572,8.024,2.3,2.3,0,0,0,4.473,1.1Z" transform="translate(40.895 -65.64)" fill="#c40e0e" fill-rule="evenodd"/>
      <path id="Tracé_124" data-name="Tracé 124" d="M482.818,101.582c-10.627-7.536-33.028-19.3-33.028-32.314,0-19.69,28.347-22.943,33.028-4.03,4.663-18.913,33.019-15.651,33.019,4.03,0,13.012-22.41,24.787-33.019,32.314M462.07,76.6a16.527,16.527,0,0,1-2.566-3.633,8.806,8.806,0,0,1-1.012-3.47,9.865,9.865,0,0,1,1.2-5.774,8.909,8.909,0,0,1,4.012-3.371,2.3,2.3,0,1,0-1.916-4.193,13.381,13.381,0,0,0-6.036,5.151,14.259,14.259,0,0,0-1.852,8.431,13.009,13.009,0,0,0,1.482,5.3,21.492,21.492,0,0,0,3.28,4.645A2.3,2.3,0,1,0,462.07,76.6Zm27.995-8.241a11.649,11.649,0,0,1,3.244-5.765,11.226,11.226,0,0,1,5.883-2.855,2.3,2.3,0,0,0-.768-4.545,15.9,15.9,0,0,0-8.268,4.048,16.2,16.2,0,0,0-4.572,8.024,2.3,2.3,0,0,0,4.473,1.1Z" transform="translate(324.163 -82.64)" fill="#c40e0e" fill-rule="evenodd"/>
      <path id="Tracé_116" data-name="Tracé 116" d="M472.477,86.26c-7.3-5.177-22.687-13.258-22.687-22.2,0-13.525,19.471-15.76,22.687-2.768,3.2-12.991,22.68-10.751,22.68,2.768,0,8.938-15.393,17.026-22.68,22.2M458.225,69.1a11.352,11.352,0,0,1-1.763-2.5,6.049,6.049,0,0,1-.7-2.383,6.777,6.777,0,0,1,.826-3.966,6.12,6.12,0,0,1,2.756-2.315,1.583,1.583,0,1,0-1.316-2.88,9.191,9.191,0,0,0-4.146,3.538,9.794,9.794,0,0,0-1.272,5.791,8.937,8.937,0,0,0,1.018,3.637,14.764,14.764,0,0,0,2.253,3.19,1.578,1.578,0,1,0,2.34-2.117Zm19.229-5.661a8,8,0,0,1,2.228-3.96,7.711,7.711,0,0,1,4.041-1.961,1.583,1.583,0,0,0-.528-3.122,10.921,10.921,0,0,0-5.679,2.781,11.129,11.129,0,0,0-3.141,5.512,1.582,1.582,0,0,0,3.072.757Z" transform="translate(203.421 8.748)" fill="#c40e0e" fill-rule="evenodd"/>
      <path id="Tracé_120" data-name="Tracé 120" d="M465.286,75.607c-4.986-3.536-15.5-9.056-15.5-15.161,0-9.238,13.3-10.765,15.5-1.891,2.188-8.874,15.492-7.343,15.492,1.891,0,6.105-10.514,11.629-15.492,15.161m-9.734-11.723a7.755,7.755,0,0,1-1.2-1.7,4.132,4.132,0,0,1-.475-1.628,4.629,4.629,0,0,1,.564-2.709,4.18,4.18,0,0,1,1.882-1.581,1.081,1.081,0,1,0-.9-1.967,6.278,6.278,0,0,0-2.832,2.417,6.69,6.69,0,0,0-.869,3.956,6.1,6.1,0,0,0,.7,2.484,10.084,10.084,0,0,0,1.539,2.179,1.078,1.078,0,0,0,1.6-1.446Zm13.135-3.867a5.466,5.466,0,0,1,1.522-2.7,5.267,5.267,0,0,1,2.76-1.34,1.081,1.081,0,0,0-.36-2.133,7.46,7.46,0,0,0-3.879,1.9,7.6,7.6,0,0,0-2.145,3.765,1.081,1.081,0,0,0,2.1.517Z" transform="translate(40.895 25.554)" fill="#c40e0e" fill-rule="evenodd"/>
      <path id="Tracé_123" data-name="Tracé 123" d="M465.286,75.607c-4.986-3.536-15.5-9.056-15.5-15.161,0-9.238,13.3-10.765,15.5-1.891,2.188-8.874,15.492-7.343,15.492,1.891,0,6.105-10.514,11.629-15.492,15.161m-9.734-11.723a7.755,7.755,0,0,1-1.2-1.7,4.132,4.132,0,0,1-.475-1.628,4.629,4.629,0,0,1,.564-2.709,4.18,4.18,0,0,1,1.882-1.581,1.081,1.081,0,1,0-.9-1.967,6.278,6.278,0,0,0-2.832,2.417,6.69,6.69,0,0,0-.869,3.956,6.1,6.1,0,0,0,.7,2.484,10.084,10.084,0,0,0,1.539,2.179,1.078,1.078,0,0,0,1.6-1.446Zm13.135-3.867a5.466,5.466,0,0,1,1.522-2.7,5.267,5.267,0,0,1,2.76-1.34,1.081,1.081,0,0,0-.36-2.133,7.46,7.46,0,0,0-3.879,1.9,7.6,7.6,0,0,0-2.145,3.765,1.081,1.081,0,0,0,2.1.517Z" transform="translate(172.434 -28.186)" fill="#c40e0e" fill-rule="evenodd"/>
    </g>
  </g>
</svg>
