<svg xmlns="http://www.w3.org/2000/svg" xmlns:xlink="http://www.w3.org/1999/xlink" width="730" height="1580" viewBox="0 0 730 1580">
  <defs>
    <clipPath id="clip-_002_-_Splashscreen_2">
      <rect width="730" height="1580"/>
    </clipPath>
  </defs>
  <g id="_002_-_Splashscreen_2" data-name="002 - Splashscreen – 2" clip-path="url(#clip-_002_-_Splashscreen_2)">
    <rect width="730" height="1580" fill="#fc7272"/>
    <path id="Union_1" data-name="Union 1" d="M3138.229,6639.3l3.811.847-.12.43Zm-3401.666-755.68,108.445-383.18L3138.229,6639.3Zm3403.276,745.99,3.54,1.643-.21.394ZM-21.07,5162.958l187.993-351.066L3139.839,6629.608ZM3143.479,6620.48l3.113,2.368-.29.34Zm77.091,1.449,3.83-.755-3.718,1.187ZM6544.01,5561.65l99.2,385.678L3224.4,6621.174Zm-6174-1050.728,258.815-302.658L3143.479,6620.48ZM3148.992,6612.346l2.536,2.983-.357.27Zm66.453,2.165,3.584-1.56-3.382,1.958ZM6234.708,4867.083,6414.2,5222.568,3219.029,6612.951ZM891.657,3957.771l317.628-240.209L3148.992,6612.346ZM3156.128,6605.6l1.833,3.446-.405.187Zm52.724,2.765,3.159-2.285-2.877,2.63Zm2574.98-2353.491,251.459,308.8L3212.01,6606.075Zm-4264.165-725.7,361.7-166.614L3156.128,6605.6ZM3164.539,6600.523l1.051,3.753-.435.095Zm36.553,3.24,2.6-2.911-2.25,3.189Zm-27.476-2.506.224-3.918.224,3.918Zm18.911-.32,1.914-3.4-1.514,3.6Zm-17.931.087.317-3.9.13,3.91ZM5212.3,3753.419,5524.063,4001.2,3203.69,6600.852ZM2224.893,3245l388.99-85.285,550.656,3440.8ZM3183.558,6600.01l1.143-3.735-.71,3.841ZM4546.648,3386l357.59,175.266-1709.8,3036.27ZM2974.614,3118.466h84.952l-.133-4.013,166.771,4.013h146.641l-.2,3.524,84.9,2.043L3174.914,6597.126l-.389-11.744-.684,11.957Zm843.135,51.2,386.828,94.618L3184.7,6596.275Z" transform="translate(-2777.925 -4973.516)" fill="#fa5050" stroke="rgba(0,0,0,0)" stroke-miterlimit="10" stroke-width="1"/>
    <g id="Groupe_73" data-name="Groupe 73" transform="translate(-276.101 74.992)">
      <path id="Tracé_117" data-name="Tracé 117" d="M482.818,101.582c-10.627-7.536-33.028-19.3-33.028-32.314,0-19.69,28.347-22.943,33.028-4.03,4.663-18.913,33.019-15.651,33.019,4.03,0,13.012-22.41,24.787-33.019,32.314M462.07,76.6a16.527,16.527,0,0,1-2.566-3.633,8.806,8.806,0,0,1-1.012-3.47,9.865,9.865,0,0,1,1.2-5.774,8.909,8.909,0,0,1,4.012-3.371,2.3,2.3,0,1,0-1.916-4.193,13.381,13.381,0,0,0-6.036,5.151,14.259,14.259,0,0,0-1.852,8.431,13.009,13.009,0,0,0,1.482,5.3,21.492,21.492,0,0,0,3.28,4.645A2.3,2.3,0,1,0,462.07,76.6Zm27.995-8.241a11.649,11.649,0,0,1,3.244-5.765,11.226,11.226,0,0,1,5.883-2.855,2.3,2.3,0,0,0-.768-4.545,15.9,15.9,0,0,0-8.268,4.048,16.2,16.2,0,0,0-4.572,8.024,2.3,2.3,0,0,0,4.473,1.1Z" transform="translate(-9.658 74.426)" fill="#c40e0e" fill-rule="evenodd"/>
      <path id="Tracé_125" data-name="Tracé 125" d="M478.763,95.574c-9.322-6.611-28.973-16.932-28.973-28.347,0-17.273,24.867-20.126,28.973-3.535,4.09-16.591,28.965-13.729,28.965,3.535,0,11.415-19.659,21.743-28.965,28.347m-18.2-21.918a14.5,14.5,0,0,1-2.251-3.187,7.725,7.725,0,0,1-.888-3.044,8.654,8.654,0,0,1,1.054-5.065A7.816,7.816,0,0,1,462,59.4a2.022,2.022,0,1,0-1.681-3.678,11.738,11.738,0,0,0-5.3,4.518,12.508,12.508,0,0,0-1.625,7.4,11.412,11.412,0,0,0,1.3,4.645,18.853,18.853,0,0,0,2.877,4.074,2.015,2.015,0,0,0,2.988-2.7Zm24.557-7.229a10.219,10.219,0,0,1,2.846-5.057,9.848,9.848,0,0,1,5.16-2.5,2.022,2.022,0,0,0-.674-3.987,13.948,13.948,0,0,0-7.253,3.551,14.213,14.213,0,0,0-4.011,7.039,2.021,2.021,0,0,0,3.924.967Z" transform="translate(437.342 -38.169)" fill="#c40e0e" fill-rule="evenodd"/>
      <path id="Tracé_126" data-name="Tracé 126" d="M478.763,95.574c-9.322-6.611-28.973-16.932-28.973-28.347,0-17.273,24.867-20.126,28.973-3.535,4.09-16.591,28.965-13.729,28.965,3.535,0,11.415-19.659,21.743-28.965,28.347m-18.2-21.918a14.5,14.5,0,0,1-2.251-3.187,7.725,7.725,0,0,1-.888-3.044,8.654,8.654,0,0,1,1.054-5.065A7.816,7.816,0,0,1,462,59.4a2.022,2.022,0,1,0-1.681-3.678,11.738,11.738,0,0,0-5.3,4.518,12.508,12.508,0,0,0-1.625,7.4,11.412,11.412,0,0,0,1.3,4.645,18.853,18.853,0,0,0,2.877,4.074,2.015,2.015,0,0,0,2.988-2.7Zm24.557-7.229a10.219,10.219,0,0,1,2.846-5.057,9.848,9.848,0,0,1,5.16-2.5,2.022,2.022,0,0,0-.674-3.987,13.948,13.948,0,0,0-7.253,3.551,14.213,14.213,0,0,0-4.011,7.039,2.021,2.021,0,0,0,3.924.967Z" transform="translate(-112.658 4.091)" fill="#c40e0e" fill-rule="evenodd"/>
      <path id="Tracé_121" data-name="Tracé 121" d="M482.818,101.582c-10.627-7.536-33.028-19.3-33.028-32.314,0-19.69,28.347-22.943,33.028-4.03,4.663-18.913,33.019-15.651,33.019,4.03,0,13.012-22.41,24.787-33.019,32.314M462.07,76.6a16.527,16.527,0,0,1-2.566-3.633,8.806,8.806,0,0,1-1.012-3.47,9.865,9.865,0,0,1,1.2-5.774,8.909,8.909,0,0,1,4.012-3.371,2.3,2.3,0,1,0-1.916-4.193,13.381,13.381,0,0,0-6.036,5.151,14.259,14.259,0,0,0-1.852,8.431,13.009,13.009,0,0,0,1.482,5.3,21.492,21.492,0,0,0,3.28,4.645A2.3,2.3,0,1,0,462.07,76.6Zm27.995-8.241a11.649,11.649,0,0,1,3.244-5.765,11.226,11.226,0,0,1,5.883-2.855,2.3,2.3,0,0,0-.768-4.545,15.9,15.9,0,0,0-8.268,4.048,16.2,16.2,0,0,0-4.572,8.024,2.3,2.3,0,0,0,4.473,1.1Z" transform="translate(377.342 42.36)" fill="#c40e0e" fill-rule="evenodd"/>
      <path id="Tracé_122" data-name="Tracé 122" d="M482.818,101.582c-10.627-7.536-33.028-19.3-33.028-32.314,0-19.69,28.347-22.943,33.028-4.03,4.663-18.913,33.019-15.651,33.019,4.03,0,13.012-22.41,24.787-33.019,32.314M462.07,76.6a16.527,16.527,0,0,1-2.566-3.633,8.806,8.806,0,0,1-1.012-3.47,9.865,9.865,0,0,1,1.2-5.774,8.909,8.909,0,0,1,4.012-3.371,2.3,2.3,0,1,0-1.916-4.193,13.381,13.381,0,0,0-6.036,5.151,14.259,14.259,0,0,0-1.852,8.431,13.009,13.009,0,0,0,1.482,5.3,21.492,21.492,0,0,0,3.28,4.645A2.3,2.3,0,1,0,462.07,76.6Zm27.995-8.241a11.649,11.649,0,0,1,3.244-5.765,11.226,11.226,0,0,1,5.883-2.855,2.3,2.3,0,0,0-.768-4.545,15.9,15.9,0,0,0-8.268,4.048,16.2,16.2,0,0,0-4.572,8.024,2.3,2.3,0,0,0,4.473,1.1Z" transform="translate(40.895 -65.64)" fill="#c40e0e" fill-rule="evenodd"/>
      <path id="Tracé_124" data-name="Tracé 124" d="M482.818,101.582c-10.627-7.536-33.028-19.3-33.028-32.314,0-19.69,28.347-22.943,33.028-4.03,4.663-18.913,33.019-15.651,33.019,4.03,0,13.012-22.41,24.787-33.019,32.314M462.07,76.6a16.527,16.527,0,0,1-2.566-3.633,8.806,8.806,0,0,1-1.012-3.47,9.865,9.865,0,0,1,1.2-5.774,8.909,8.909,0,0,1,4.012-3.371,2.3,2.3,0,1,0-1.916-4.193,13.381,13.381,0,0,0-6.036,5.151,14.259,14.259,0,0,0-1.852,8.431,13.009,13.009,0,0,0,1.482,5.3,21.492,21.492,0,0,0,3.28,4.645A2.3,2.3,0,1,0,462.07,76.6Zm27.995-8.241a11.649,11.649,0,0,1,3.244-5.765,11.226,11.226,0,0,1,5.883-2.855,2.3,2.3,0,0,0-.768-4.545,15.9,15.9,0,0,0-8.268,4.048,16.2,16.2,0,0,0-4.572,8.024,2.3,2.3,0,0,0,4.473,1.1Z" transform="translate(324.163 -82.64)" fill="#c40e0e" fill-rule="evenodd"/>
      <path id="Tracé_116" data-name="Tracé 116" d="M472.477,86.26c-7.3-5.177-22.687-13.258-22.687-22.2,0-13.525,19.471-15.76,22.687-2.768,3.2-12.991,22.68-10.751,22.68,2.768,0,8.938-15.393,17.026-22.68,22.2M458.225,69.1a11.352,11.352,0,0,1-1.763-2.5,6.049,6.049,0,0,1-.7-2.383,6.777,6.777,0,0,1,.826-3.966,6.12,6.12,0,0,1,2.756-2.315,1.583,1.583,0,1,0-1.316-2.88,9.191,9.191,0,0,0-4.146,3.538,9.794,9.794,0,0,0-1.272,5.791,8.937,8.937,0,0,0,1.018,3.637,14.764,14.764,0,0,0,2.253,3.19,1.578,1.578,0,1,0,2.34-2.117Zm19.229-5.661a8,8,0,0,1,2.228-3.96,7.711,7.711,0,0,1,4.041-1.961,1.583,1.583,0,0,0-.528-3.122,10.921,10.921,0,0,0-5.679,2.781,11.129,11.129,0,0,0-3.141,5.512,1.582,1.582,0,0,0,3.072.757Z" transform="translate(203.421 8.748)" fill="#c40e0e" fill-rule="evenodd"/>
      <path id="Tracé_120" data-name="Tracé 120" d="M465.286,75.607c-4.986-3.536-15.5-9.056-15.5-15.161,0-9.238,13.3-10.765,15.5-1.891,2.188-8.874,15.492-7.343,15.492,1.891,0,6.105-10.514,11.629-15.492,15.161m-9.734-11.723a7.755,7.755,0,0,1-1.2-1.7,4.132,4.132,0,0,1-.475-1.628,4.629,4.629,0,0,1,.564-2.709,4.18,4.18,0,0,1,1.882-1.581,1.081,1.081,0,1,0-.9-1.967,6.278,6.278,0,0,0-2.832,2.417,6.69,6.69,0,0,0-.869,3.956,6.1,6.1,0,0,0,.7,2.484,10.084,10.084,0,0,0,1.539,2.179,1.078,1.078,0,0,0,1.6-1.446Zm13.135-3.867a5.466,5.466,0,0,1,1.522-2.7,5.267,5.267,0,0,1,2.76-1.34,1.081,1.081,0,0,0-.36-2.133,7.46,7.46,0,0,0-3.879,1.9,7.6,7.6,0,0,0-2.145,3.765,1.081,1.081,0,0,0,2.1.517Z" transform="translate(40.895 25.554)" fill="#c40e0e" fill-rule="evenodd"/>
      <path id="Tracé_123" data-name="Tracé 123" d="M465.286,75.607c-4.986-3.536-15.5-9.056-15.5-15.161,0-9.238,13.3-10.765,15.5-1.891,2.188-8.874,15.492-7.343,15.492,1.891,0,6.105-10.514,11.629-15.492,15.161m-9.734-11.723a7.755,7.755,0,0,1-1.2-1.7,4.132,4.132,0,0,1-.475-1.628,4.629,4.629,0,0,1,.564-2.709,4.18,4.18,0,0,1,1.882-1.581,1.081,1.081,0,1,0-.9-1.967,6.278,6.278,0,0,0-2.832,2.417,6.69,6.69,0,0,0-.869,3.956,6.1,6.1,0,0,0,.7,2.484,10.084,10.084,0,0,0,1.539,2.179,1.078,1.078,0,0,0,1.6-1.446Zm13.135-3.867a5.466,5.466,0,0,1,1.522-2.7,5.267,5.267,0,0,1,2.76-1.34,1.081,1.081,0,0,0-.36-2.133,7.46,7.46,0,0,0-3.879,1.9,7.6,7.6,0,0,0-2.145,3.765,1.081,1.081,0,0,0,2.1.517Z" transform="translate(172.434 -28.186)" fill="#c40e0e" fill-rule="evenodd"/>
    </g>
  </g>
</svg>
