<svg xmlns="http://www.w3.org/2000/svg" xmlns:xlink="http://www.w3.org/1999/xlink" width="194" height="280" viewBox="0 0 194 280">
  <defs>
    <filter id="Rectangle_10" x="0" y="0" width="194" height="280" filterUnits="userSpaceOnUse">
      <feOffset dy="1" input="SourceAlpha"/>
      <feGaussianBlur stdDeviation="0.5" result="blur"/>
      <feFlood flood-opacity="0.502"/>
      <feComposite operator="in" in2="blur"/>
      <feComposite in="SourceGraphic"/>
    </filter>
    <clipPath id="clip-path">
      <rect id="Rectangle_13" data-name="Rectangle 13" width="176" height="260" fill="#fc7272"/>
    </clipPath>
  </defs>
  <g id="Groupe_97" data-name="Groupe 97" transform="translate(-488.5 -787.5)">
    <g id="Groupe_96" data-name="Groupe 96">
      <g transform="matrix(1, 0, 0, 1, 488.5, 787.5)" filter="url(#Rectangle_10)">
        <rect id="Rectangle_10-2" data-name="Rectangle 10" width="191" height="277" rx="10" transform="translate(1.5 0.5)" fill="#fff"/>
      </g>
      <rect id="Rectangle_11" data-name="Rectangle 11" width="176" height="260" transform="translate(498 797)" fill="#c40e0e"/>
    </g>
    <g id="Groupe_2" data-name="Groupe 2" transform="translate(498 797)" clip-path="url(#clip-path)">
      <g id="Calque_1-2" transform="translate(-61.93 12.296)">
        <g id="_1UcCrY" transform="translate(0 0)">
          <path id="Tracé_132" data-name="Tracé 132" d="M0,327.026c.589-.168,1.178-.335,1.774-.506-.911-2.26-.269-3.251,2.02-3.643,3.609-.617,7.2-1.349,10.787-2.062,4.331-.861,8.687-1.628,12.976-2.662,5.732-1.382,11.4-3.036,17.118-4.474,4.745-1.193,9.532-2.218,14.289-3.363,2.58-.621,5.114-1.448,7.712-1.973a47.781,47.781,0,0,1,6.155-.7c3.839-.266,7.687-.4,11.524-.676,2.06-.149,4.1-.564,6.162-.706,1.774-.121,3.564-.025,5.347-.025v-.595c-3.111,0-6.229-.131-9.33.032-4.464.232-8.936.527-13.37,1.077-3.714.461-7.381,1.308-11.061,2.019-2.383.461-4.77.917-7.124,1.5-10.173,2.508-20.329,5.076-30.5,7.581a21.724,21.724,0,0,1-6.316.715c1.066-.4,2.107-.886,3.2-1.173,7.417-1.944,14.845-3.84,22.268-5.759,5.11-1.32,10.171-2.88,15.34-3.911a124.127,124.127,0,0,1,15.951-2.265c9.835-.655,19.7-.957,29.551-1.237,2.982-.086,5.981.385,9.119.612a15.853,15.853,0,0,0-1.658-3.567,3.738,3.738,0,0,0-2.516-1.133c-5.481-.155-10.967-.157-16.451-.233a2.475,2.475,0,0,1-1.689-.639h19.962a48.6,48.6,0,0,1-1.54-16.653,86.372,86.372,0,0,0-.614-14.757c-.286-2.682-1.619-5.238-2.186-7.913a23.283,23.283,0,0,1-.141-5.02,41.3,41.3,0,0,0,.164-4.369c-.2-2.037-.632-4.036,1.752-5.294-2.671-2.731-1.592-5.777-1.486-8.691.018-.484.261-1.112.043-1.432-1.934-2.821-2.261-6.081-2.859-9.309-.593-3.213-1.644-6.339-2.3-9.542-.952-4.652-1.662-9.353-2.622-14a43.152,43.152,0,0,0-1.727-5.219c-.072-.211-.316-.379-.347-.586-.518-3.632-.854-7.3-1.579-10.889a50.325,50.325,0,0,0-2.269-6.631,4.718,4.718,0,0,1-.42-1.044c-.266-3.058-.862-6.147-.645-9.175a26,26,0,0,0-2.135-12.054c-2.365-5.747-1.23-11.859-1.5-17.821-.147-3.262.725-6.637-1.27-9.678a2.882,2.882,0,0,1-.14-1.6c.241-3.909.772-7.823.692-11.724a44.282,44.282,0,0,0-1.313-11.08,106.42,106.42,0,0,1-4.058-23.031c-.222-3.9-.456-7.762-2.153-11.423A6.307,6.307,0,0,1,80.6,66.7c.8-3.811,1.557-7.648,2.688-11.368,1.794-5.9,4.963-10.9,10.6-13.935a9.582,9.582,0,0,1,7.529-.63c2.547.7,5.579,1.159,7.984.411,1.865-.579,3.087-3.189,4.607-4.887.412-.459.873-1.27,1.291-1.258,1.382.044,2.383-.345,2.447-1.768.072-1.6.477-3.7-.341-4.743-2.426-3.1-2.877-6.475-2.613-10.128.114-1.568.982-2.167,2.43-1.4.656-2.607,1.138-5.012,1.87-7.337,2.192-6.97,9.585-10.171,16.458-9.589,8.846.748,16.9,11.269,14.922,19.8-.4,1.745.329,3.738.451,5.624a4.405,4.405,0,0,1-.225,2.476c-2.075,3.174-2.628,6.915-4.112,10.285A31.228,31.228,0,0,1,142.7,44.13c-.775,1.032-1.356,1.962-.311,3.031,2.375,2.433,4.808,4.809,7.378,7.37,1.407-1.984,2.524-3.556,3.8-5.356h-2.918l6.905-6.562-.47-.625-5.213,1.795-.419-.5c2.763-2.093,5.8-4.009,5.8-8.085l-3.695,1.945,3.351-6.112-4.141.906c2.084-3.45,3.829-6.837,6.05-9.881,2.282-3.129,4.991-5.954,7.579-8.852,1.917-2.148,3.643-4.642,5.979-6.208,4.906-3.286,10.651-4.214,15.6-.819,2.9,1.991,6.143,4.552,7.356,8.365,1.8,5.664,3.47,11.372,5.253,17.043a28.767,28.767,0,0,1,1.568,5.75l-2.867-3.309c.506,4.647,2.267,8.151,4.2,11.557.348.611,1.4.832,2.132,1.219a14.839,14.839,0,0,1,7.992,11.881,76.394,76.394,0,0,1,.747,14.877c-.255,3.551-1.765,7.079-3.09,10.473-2.5,6.392-5.35,12.645-7.881,19.024a85.335,85.335,0,0,0-4.012,11.914c-.47,2.008.327,4.326.629,6.492s.613,4.349,1.084,6.489c1.119,5.081,2.871,10.087,3.383,15.22.74,7.43,1.225,14.973-3.218,21.824a110.273,110.273,0,0,0-6.028,11.356c-3.744,7.586-2.7,15.329-.714,23.138,1.055,4.138,1.708,8.377,2.641,12.549.177.793.645,1.891,1.274,2.162,7.791,3.347,15.629,6.588,23.483,9.789a2.129,2.129,0,0,0,2.746-.728c1.59-1.808,3.29-4.035,6.353-3.242.512.132,1.209.1,1.506.43,2.307,2.545,5.293,2.506,8.354,2.4a6.086,6.086,0,0,1,1.91.6l-.171.855c-1.664,0-3.331.066-4.991-.017-1.956-.1-2.5.846-1.58,2.356,1.874,3.073,3.9,6.061,7.573,7.357a3.536,3.536,0,0,1,2.437,3.262c.6,4.453.294,8.707-2.165,12.574a16,16,0,0,1-2.9,3.17,2.589,2.589,0,0,1-1.732.315c-1.286-.1-4.023-3.051-4.4-4.264-.635-2.033-1.468-4.006-2.282-5.979a1.412,1.412,0,0,0-.9-.6c-7.582-1.868-15.158-3.759-22.765-5.519a25.592,25.592,0,0,0-4.633-.265c.334,9.4.682,18.536.943,27.673.022.8,1.17,9.292,2.1,11.113,1.1,2.155,2.358,4.225,3.571,6.319.782,1.349,1.605,2.675,2.409,4.011.039.065.039.189.089.208,3.774,1.494,1.413,4,1.17,6.283-.462,4.329-.625,8.689-.93,13.034a5.406,5.406,0,0,1-.636,2.406c-2.136-3.92-.049-8.677-3.129-12.223-3.233,2.9-5.651,13.469-3.55,15.162l-5.24,2.426,9.48,1.662a5.552,5.552,0,0,0,3.049,1.8c.787-.012,1.618-.891,2.341-.788,4.7.673,9.372,1.57,14.071,2.264,1.756.259,3.573.087,5.347.255,3.187.3,6.366.7,9.545,1.083q8.283.989,16.561,2c3.5.421,6.994.835,10.716,1.277l-.627,1.368,1.537.538c-.011.177-.022.355-.035.531H266.64c-.018.243-.035.484-.053.727l19.1,2.8c-.726,1.087-7.973.836-13.524-.513.024.131.039.366.071.367,3.871.258,7.031,3.322,11.121,2.774a2.234,2.234,0,0,1,1.682.509c.237.241-.085,1.484-.14,1.483a64.64,64.64,0,0,1-7.614-.534l-4.213,1.007,5.81,3.083c-1.388,1.534-2.339,2.584-3.4,3.754-1.372-1.255-2.44-2.229-3.618-3.308-.972,1.355-1.065,2.327.09,3.683.92,1.08,1.206,2.7,1.769,4.064H269.2c-.133.2-.268.4-.4.606l6.6,7.417c-3.941,1.026-5.749.45-10.055-3.213-.636.873-1.259,1.724-1.9,2.606-8.056-.6-16.281-1.2-24.5-1.828-5.462-.419-10.927-.836-16.382-1.339q-14.852-1.372-29.695-2.849c-8.9-.876-17.789-1.891-26.7-2.671-7.144-.625-14.3-1.17-21.468-1.425-9.421-.335-18.858-.55-28.282-.437-6.238.075-12.48.7-18.7,1.288-7.992.761-15.962,1.766-23.946,2.615-4.892.521-9.79,1.01-14.695,1.408-6.7.546-13.4,1.1-20.11,1.441-4.181.211-8.384.04-12.577.007a5.037,5.037,0,0,1-1.268-.288l81.558-8.215c-7.594-2.163-15-.534-22.436.577-3.575.534-7.135,1.235-10.729,1.575-8.529.807-17.072,1.462-25.612,2.145-6.467.516-12.94.964-19.407,1.479a31.586,31.586,0,0,1-4.1.519,42.99,42.99,0,0,1-8.529-1.319c1.356,0,2.717.081,4.066-.014,8.695-.612,17.389-1.23,26.078-1.916,5.971-.472,11.943-.966,17.9-1.619,4.881-.535,9.731-1.352,14.6-1.986,5.243-.683,10.5-1.3,15.743-1.951a2.305,2.305,0,0,0,.568-.156l1.309-4.136a6.351,6.351,0,0,0-1.569-.15c-5.158.7-10.3,1.494-15.471,2.13-1.862.229-3.771.059-5.655.149-.643.03-1.266.361-1.912.446-6.1.8-12.213,1.541-18.312,2.371-1.3.177-2.545.784-3.847.946-5.114.64-10.246,1.137-15.359,1.778-2.262.284-4.489,1.039-6.749,1.12a51.928,51.928,0,0,1-6.794-.651,36.635,36.635,0,0,0-5.5-.419c-3.963.219-3.958.316-8.713-1.293,1.2-.184,1.955-.315,2.717-.412a11.984,11.984,0,0,0,2.527-.319,9.107,9.107,0,0,0,1.963-1.342c-.521-.583-.99-1.606-1.571-1.673a59.612,59.612,0,0,0-6.647-.257c-1.687-.01-1.687.043-1.937-1.373l13.651-3.822c-2.881-.237-5.872-.328-8.811-.77-2.741-.412-5.426-1.2-8.135-1.817v-.927ZM155.181,219.655c.977,6.7-2.132,11.869-5.619,17.029-1.819,2.691-2.961,5.893-1.432,9.136a8.032,8.032,0,0,1,.32,6.386,21.3,21.3,0,0,0-.435,12.931,23.766,23.766,0,0,1,.627,9.9c-.158,1.364-.632,2.9-.2,4.079.865,2.391-.137,4.064-1.214,5.976a5.286,5.286,0,0,0-.575,3.525c.722,2.926,1.939,5.729,2.7,8.648.693,2.649,1.173,5.263,3.894,6.773,2.383,1.323,4.488,3.525,7.008,4.136,4.059.984,8.364.95,12.56,1.4,3.6.385,7.223.67,10.773,1.328,2.486.461,4.321.08,5.537-2.308l-1.359-.821c.981-.237,2.092-.164,2.523-.668,2.452-2.866,4.761-5.81,4.307-10-.273-2.52-.083-5.086-.272-7.619a47.293,47.293,0,0,0-1.026-8.867c-2.653-9.728-5.713-19.344-8.382-29.068-1.536-5.6-2.572-11.331-3.961-16.971a2.89,2.89,0,0,0-1.758-1.711c-2.511-.7-5.12-1.059-7.636-1.748a68.278,68.278,0,0,1-9.615-3.036c-3.531-1.559-5.457-4.722-6.761-8.428ZM143.237,338.993c1.41-.287,2.707-.159,3.263-.737,1.967-2.043,4.364-1.557,6.685-1.476,1.987.069,3.963.381,5.947.552,5.687.493,11.375.955,17.06,1.453,6.078.531,12.148,1.141,18.233,1.591a12.437,12.437,0,0,0,3.574-.641c1-.232,1.995-.89,2.946-.811,9.814.815,19.619,1.723,29.423,2.647,3.987.377,7.96.915,11.949,1.273,3.5.316,7.022.484,10.533.717a31.774,31.774,0,0,0-5.369-1.2c-5.02-.552-10.059-.931-15.08-1.476-8.035-.872-16.058-1.851-24.093-2.726-4.61-.5-9.23-.912-13.851-1.3-1.8-.153-3.631-.051-5.43-.228-4.122-.4-8.232-.923-12.349-1.367-2.372-.257-4.75-.457-7.124-.686-4.731-.455-9.46-.935-14.194-1.357-1.451-.13-2.917-.086-4.374-.152-2.617-.12-5.243-.182-7.846-.443-.862-.087-2.178-.524-2.405-1.128-.581-1.549.685-1.844,1.959-1.992.4-.047.756-.5,1.133-.775-.4-.33-.776-.888-1.219-.952-2.667-.377-3.747.835-4.237,4.712h-8.82q0,.435,0,.869h9.083q0,.31-.008.621H130.4q-5.491,0-8.018,2.04c1.015.048,1.838.116,2.662.121,5.195.033,10.39.088,15.585.057,1.691-.01,2.978.234,2.6,2.8Zm-29.6-.063h23.412c-.01-.248-.019-.5-.028-.745C129.252,337.183,121.5,336.825,113.64,338.93Zm144.715,4.625q-.052.457-.1.915l8.655.807c.022-.2.043-.4.065-.6l-8.616-1.117Z" transform="translate(0 -0.003)" fill="#fc7272"/>
        </g>
      </g>
    </g>
    <g id="Calque_1-2-2" data-name="Calque_1-2" transform="translate(541.473 897.474)">
      <g id="Groupe_45" data-name="Groupe 45" transform="translate(0 0)">
        <text id="Trouve" transform="matrix(1, -0.005, 0.005, 1, 0.066, 25.048)" fill="#fff" font-size="13" font-family="MerengueScript-Regular, Merengue Script"><tspan x="0" y="0">Trouve</tspan></text>
        <text id="match" transform="matrix(1, -0.005, 0.005, 1, 19.397, 36.455)" fill="#fff" font-size="22" font-family="MerengueScript-Regular, Merengue Script"><tspan x="0" y="0">match</tspan></text>
        <path id="Tracé_109" data-name="Tracé 109" d="M633.008,159.5l-.01-2.037c-.013-2.552-.12-4.845-1.1-4.84-.55,0-.694-.073-.7-.384-.007-1.212,2.861-2.076,4.008-2.083,1.1-.005,1.915.274,1.927,2.465.009,1.83-1.276,7.816-1.26,10.961a4.69,4.69,0,0,0,.027.618,3.911,3.911,0,0,1-1.745.267C633.129,164.476,633.021,162.105,633.008,159.5Zm3.458,7.148c.005,1.108-.443,2.245-1.591,2.25-1.124.005-2.083-.4-2.087-1.124-.005-1.082.466-2.373,1.83-2.38C635.526,165.392,636.462,165.851,636.466,166.65Z" transform="translate(-548.519 -130.491)" fill="#fff"/>
        <g id="Groupe_43" data-name="Groupe 43" transform="translate(39.163 10.522)">
          <path id="Tracé_110" data-name="Tracé 110" d="M299.506,84.428c-.119,0-.24-.014-.333-.014s-.214-.1-.214-.176c0-.515.2-.741.513-.855-.016-.386-.017-.773-.02-1.126a2.085,2.085,0,0,1,2.156-1.927.724.724,0,0,1,.72.72c0,.048-.039.081-.119.081-.147,0-.314.871-.428,2.047a2.359,2.359,0,0,0,1.087-.553,2.16,2.16,0,0,1,.177.884c.005,1.014-.605,1.146-1.336,1.15h-.054c-.037.629-.06,1.272-.055,2.287.02,1.175.05,1.963.462,1.962.452,0,1.108-1.471,1.409-2.373a1.353,1.353,0,0,1,.483,1.108,2.783,2.783,0,0,1-2.511,2.6c-1.3.007-1.783-3.049-1.942-5.818Z" transform="translate(-298.96 -80.33)" fill="#fff"/>
          <path id="Tracé_111" data-name="Tracé 111" d="M338.659,109.245a2.26,2.26,0,0,1-1.944,1.974,2.841,2.841,0,0,1-2.631,2.46c-1.315.007-2.026-1.407-2.034-2.887-.009-1.691.885-3.482,2.812-3.492,1.276-.007,1.946,1.23,1.994,2.614a3.13,3.13,0,0,0,1.627-1.409,1.3,1.3,0,0,1,.177.74Zm-3.378,1.965a2.132,2.132,0,0,1-1.159-.605c.005.918.208,1.785.593,1.784.292,0,.475-.517.566-1.178Zm-.625-2.605a.649.649,0,0,0-.263.6.956.956,0,0,0,.922.977c-.031-.837-.221-1.593-.579-1.591C334.71,108.587,334.682,108.6,334.656,108.6Z" transform="translate(-327.715 -103.767)" fill="#fff"/>
          <path id="Tracé_112" data-name="Tracé 112" d="M383.337,111.278A2.8,2.8,0,0,1,380.8,113.9c-1.9.009-.917-3.888-1.594-4.036-.63-.139-1.62,4.053-2.883,4.059-.677,0-1.1-2.973-1.112-4.325a2.2,2.2,0,0,1,1.691-1.908c.439,0,.494.432.5.8,0,.466-.06,1.159-.058,1.691.037-.274.494-3,3.006-2.567,1.4.24.075,4.934,1.111,4.929.452,0,1.108-1.471,1.409-2.373a1.391,1.391,0,0,1,.47,1.108Z" transform="translate(-365.222 -104.002)" fill="#fff"/>
        </g>
        <g id="Groupe_44" data-name="Groupe 44" transform="translate(53.818)">
          <path id="Tracé_113" data-name="Tracé 113" d="M421.221,28.3a.24.24,0,0,1-.382,0c-.253-.331-.5-.654-.744-.977q-2.008-2.67-3.852-5.457a60.016,60.016,0,0,1-3.538-6,21.345,21.345,0,0,1-1.616-4.042A7.738,7.738,0,0,1,410.92,8.8a9.81,9.81,0,0,1,1.793-4.582A9.8,9.8,0,0,1,418.322.347a9.732,9.732,0,0,1,7.452.938,9.859,9.859,0,0,1,4.913,6.552,9.279,9.279,0,0,1,.248,2.176,7.5,7.5,0,0,1-.316,2.013,24.01,24.01,0,0,1-1.8,4.4,66.031,66.031,0,0,1-3.509,6q-1.943,3-4.085,5.871a0,0,0,0,1,0,0Z" transform="translate(-410.845 0.003)" fill="#c40e0e"/>
          <path id="Tracé_114" data-name="Tracé 114" d="M441.025,40.054a6.367,6.367,0,1,0-1.3-9.017,6.37,6.37,0,0,0,1.3,9.017Z" transform="translate(-434.801 -24.804)" fill="#fff"/>
          <path id="Tracé_115" data-name="Tracé 115" d="M454.577,59.741c-1.54-1.092-4.787-2.8-4.787-4.684a2.432,2.432,0,0,1,4.787-.584,2.432,2.432,0,0,1,4.786.584c0,1.886-3.248,3.593-4.786,4.684m-3.007-3.622a2.4,2.4,0,0,1-.372-.527,1.277,1.277,0,0,1-.147-.5,1.43,1.43,0,0,1,.174-.837,1.291,1.291,0,0,1,.582-.489.334.334,0,1,0-.278-.608,1.94,1.94,0,0,0-.875.747,2.067,2.067,0,0,0-.269,1.222,1.885,1.885,0,0,0,.215.768,3.117,3.117,0,0,0,.475.673.333.333,0,1,0,.494-.447Zm4.058-1.195a1.688,1.688,0,0,1,.47-.836,1.627,1.627,0,0,1,.853-.414.334.334,0,0,0-.111-.659,2.3,2.3,0,0,0-1.2.587,2.348,2.348,0,0,0-.663,1.163.334.334,0,0,0,.648.16Z" transform="translate(-444.689 -45.752)" fill="#c40e0e" fill-rule="evenodd"/>
        </g>
      </g>
    </g>
  </g>
</svg>
