<svg xmlns="http://www.w3.org/2000/svg" xmlns:xlink="http://www.w3.org/1999/xlink" width="422.041" height="286.84" viewBox="0 0 422.041 286.84">
  <defs>
    <filter id="match" x="69.352" y="67.353" width="339.872" height="219.487" filterUnits="userSpaceOnUse">
      <feOffset dy="3" input="SourceAlpha"/>
      <feGaussianBlur stdDeviation="7.5" result="blur"/>
      <feFlood flood-opacity="0.161"/>
      <feComposite operator="in" in2="blur"/>
      <feComposite in="SourceGraphic"/>
    </filter>
    <filter id="Tracé_110" x="164.017" y="50.114" width="68.799" height="92.236" filterUnits="userSpaceOnUse">
      <feOffset dy="3" input="SourceAlpha"/>
      <feGaussianBlur stdDeviation="7.5" result="blur-2"/>
      <feFlood flood-opacity="0.161"/>
      <feComposite operator="in" in2="blur-2"/>
      <feComposite in="SourceGraphic"/>
    </filter>
    <filter id="Tracé_111" x="184.66" y="66.938" width="76.478" height="75.38" filterUnits="userSpaceOnUse">
      <feOffset dy="3" input="SourceAlpha"/>
      <feGaussianBlur stdDeviation="7.5" result="blur-3"/>
      <feFlood flood-opacity="0.161"/>
      <feComposite operator="in" in2="blur-3"/>
      <feComposite in="SourceGraphic"/>
    </filter>
    <filter id="Tracé_112" x="211.584" y="67.106" width="83.708" height="75.255" filterUnits="userSpaceOnUse">
      <feOffset dy="3" input="SourceAlpha"/>
      <feGaussianBlur stdDeviation="7.5" result="blur-4"/>
      <feFlood flood-opacity="0.161"/>
      <feComposite operator="in" in2="blur-4"/>
      <feComposite in="SourceGraphic"/>
    </filter>
    <filter id="Tracé_113" x="233.814" y="0" width="140.679" height="180.248" filterUnits="userSpaceOnUse">
      <feOffset dy="3" input="SourceAlpha"/>
      <feGaussianBlur stdDeviation="7.5" result="blur-5"/>
      <feFlood flood-opacity="0.251"/>
      <feComposite operator="in" in2="blur-5"/>
      <feComposite in="SourceGraphic"/>
    </filter>
  </defs>
  <g id="logo" transform="translate(0.032 19.503)">
    <g id="Groupe_45" data-name="Groupe 45" transform="translate(-0.032 -0.003)">
      <text id="Trouve" transform="matrix(1, -0.005, 0.005, 1, 0.369, 130.381)" fill="#fff" font-size="72" font-family="MerengueScript-Regular, Merengue Script"><tspan x="0" y="0">Trouve</tspan></text>
      <g transform="matrix(1, 0, 0, 1, 0, -19.5)" filter="url(#match)">
        <text id="match-2" data-name="match" transform="matrix(1, -0.01, 0.01, 1, 92.44, 204.34)" fill="#fff" font-size="114" font-family="MerengueScript-Regular, Merengue Script"><tspan x="0" y="0">match</tspan></text>
      </g>
      <path id="Tracé_109" data-name="Tracé 109" d="M639.809,194.657l-.05-9.7c-.062-12.152-.574-23.075-5.246-23.05-2.62.012-3.306-.349-3.312-1.828-.031-5.77,13.624-9.888,19.089-9.919,5.24-.025,9.12,1.3,9.176,11.74.044,8.715-6.076,37.223-6,52.2a22.3,22.3,0,0,0,.131,2.944c-1.815.992-4.554,1.248-8.309,1.273C640.389,218.343,639.871,207.052,639.809,194.657ZM656.278,228.7c.025,5.278-2.108,10.692-7.579,10.717-5.352.025-9.919-1.915-9.937-5.352-.025-5.153,2.221-11.3,8.715-11.335C651.8,222.7,656.259,224.894,656.278,228.7Z" transform="translate(-237.424 -56.485)" fill="#fff"/>
      <g id="Groupe_43" data-name="Groupe 43" transform="translate(186.517 50.114)">
        <g transform="matrix(1, 0, 0, 1, -186.52, -69.61)" filter="url(#Tracé_110)">
          <path id="Tracé_110-2" data-name="Tracé 110" d="M301.561,99.849c-.568,0-1.142-.069-1.585-.069-.38,0-1.017-.455-1.017-.836-.012-2.452.93-3.531,2.445-4.074-.075-1.84-.081-3.681-.094-5.365.031-5.9,5.714-9.151,10.268-9.176a3.447,3.447,0,0,1,3.431,3.431c0,.231-.187.387-.568.387-.7,0-1.5,4.148-2.04,9.75a11.237,11.237,0,0,0,5.178-2.633,10.289,10.289,0,0,1,.842,4.211c.025,4.828-2.882,5.458-6.363,5.477H311.8c-.175,2.994-.287,6.057-.262,10.892.094,5.6.237,9.351,2.2,9.345,2.152-.012,5.278-7.006,6.712-11.3,1.4.911,2.3,3.057,2.3,5.278.031,6.363-6.326,12.377-11.959,12.4-6.2.031-8.49-14.523-9.251-27.71Z" transform="translate(-112.44 -10.72)" fill="#fff"/>
        </g>
        <g transform="matrix(1, 0, 0, 1, -186.52, -69.61)" filter="url(#Tracé_111)">
          <path id="Tracé_111-2" data-name="Tracé 111" d="M363.528,116.564c.025,4.828-4.516,8.3-9.257,9.4-1.485,6.219-5.7,11.684-12.533,11.715-6.263.031-9.651-6.7-9.688-13.749-.044-8.054,4.217-16.581,13.393-16.631,6.076-.031,9.27,5.858,9.495,12.451a14.906,14.906,0,0,0,7.748-6.712,6.191,6.191,0,0,1,.842,3.525Zm-16.088,9.357a10.155,10.155,0,0,1-5.521-2.882c.025,4.373.992,8.5,2.826,8.5,1.391-.006,2.264-2.464,2.695-5.608Zm-2.976-12.408c-.755.312-1.26,1.541-1.254,2.845a4.554,4.554,0,0,0,4.392,4.654c-.15-3.986-1.054-7.586-2.757-7.579C344.72,113.432,344.589,113.507,344.464,113.513Z" transform="translate(-124.89 -20.86)" fill="#fff"/>
        </g>
        <g transform="matrix(1, 0, 0, 1, -186.52, -69.61)" filter="url(#Tracé_112)">
          <path id="Tracé_112-2" data-name="Tracé 112" d="M413.918,125.23c.031,6.438-6.394,12.451-12.09,12.483-9.052.044-4.367-18.515-7.592-19.22-3-.661-7.717,19.3-13.73,19.332-3.225.019-5.259-14.161-5.3-20.6-.025-4.523,5.2-9.077,8.053-9.089,2.09-.012,2.352,2.059,2.358,3.824.012,2.221-.287,5.521-.275,8.054.175-1.3,2.352-14.273,14.317-12.227,6.681,1.142.356,23.5,5.29,23.474,2.152-.012,5.278-7.006,6.712-11.3a6.626,6.626,0,0,1,2.24,5.278Z" transform="translate(-141.13 -20.96)" fill="#fff"/>
        </g>
      </g>
      <g id="Groupe_44" data-name="Groupe 44" transform="translate(256.314)">
        <g transform="matrix(1, 0, 0, 1, -256.31, -19.5)" filter="url(#Tracé_113)">
          <path id="Tracé_113-2" data-name="Tracé 113" d="M460.261,134.788a1.141,1.141,0,0,1-1.822.006c-1.2-1.578-2.383-3.113-3.543-4.654q-9.563-12.717-18.347-25.988A285.82,285.82,0,0,1,419.7,75.587,101.655,101.655,0,0,1,412,56.336a36.856,36.856,0,0,1-.8-14.423,46.719,46.719,0,0,1,8.54-21.821A46.65,46.65,0,0,1,446.456,1.664a46.349,46.349,0,0,1,35.489,4.467c12.32,6.931,20.093,17.442,23.4,31.2A44.189,44.189,0,0,1,506.524,47.7a35.724,35.724,0,0,1-1.5,9.588,114.355,114.355,0,0,1-8.565,20.948,314.433,314.433,0,0,1-16.712,28.583q-9.254,14.307-19.457,27.96a.019.019,0,0,1-.006.012Z" transform="translate(-154.53 19.5)" fill="#c40e0e"/>
        </g>
        <path id="Tracé_114" data-name="Tracé 114" d="M450.856,83.363a21.918,21.918,0,1,1,.006,0Z" transform="translate(-421.215 -10.735)" fill="#fff"/>
        <path id="Tracé_115" data-name="Tracé 115" d="M472.591,86.429c-7.336-5.2-22.8-13.325-22.8-22.308,0-13.593,19.569-15.839,22.8-2.782,3.219-13.057,22.794-10.8,22.794,2.782,0,8.983-15.471,17.111-22.794,22.308M458.268,69.181a11.407,11.407,0,0,1-1.772-2.508,6.08,6.08,0,0,1-.7-2.4,6.81,6.81,0,0,1,.83-3.986,6.151,6.151,0,0,1,2.77-2.327,1.591,1.591,0,1,0-1.323-2.895,9.237,9.237,0,0,0-4.167,3.556,9.843,9.843,0,0,0-1.279,5.82,8.981,8.981,0,0,0,1.023,3.656,14.841,14.841,0,0,0,2.264,3.206,1.586,1.586,0,1,0,2.352-2.127Zm19.326-5.689a8.042,8.042,0,0,1,2.24-3.98,7.75,7.75,0,0,1,4.061-1.971,1.591,1.591,0,0,0-.53-3.138,10.976,10.976,0,0,0-5.708,2.795,11.185,11.185,0,0,0-3.157,5.54,1.59,1.59,0,0,0,3.088.761Z" transform="translate(-425.495 -19.803)" fill="#c40e0e" fill-rule="evenodd"/>
      </g>
    </g>
  </g>
</svg>
