<svg xmlns="http://www.w3.org/2000/svg" width="197.625" height="71.214" viewBox="0 0 197.625 71.214">
  <g id="logobiere" transform="translate(-1277.375 -630.233)">
    <g id="Calque_1-2" transform="translate(1277.375 630.233)">
      <g id="Groupe_23" data-name="Groupe 23" transform="translate(0 0)">
        <path id="Tracé_62" data-name="Tracé 62" d="M193.316,41.741a7.259,7.259,0,0,0-9.655-.322c-.27-.334-.534-.649-.788-.942a7.3,7.3,0,0,0,.156-1.507,12.069,12.069,0,0,0-.573-3.735,12.289,12.289,0,0,0,3.2-8.082,10.172,10.172,0,0,0-4.356-8.426,7.256,7.256,0,0,0-2.755-1.108,8.656,8.656,0,0,0-8.238-6.2,9.042,9.042,0,0,0-4.374,1.132,8,8,0,0,0-3.393-.752,9.127,9.127,0,0,0-3.941.911,8.4,8.4,0,0,0-3.153-.6,10.5,10.5,0,0,0-5.832,1.807c-.066-.043-.132-.087-.2-.128a13.456,13.456,0,0,0-7.066-1.99,15.165,15.165,0,0,0-7.54,1.927,11.111,11.111,0,0,0-2.049-1.079,14.231,14.231,0,0,0,.639-4.2A8.182,8.182,0,0,0,125.307.01a7.786,7.786,0,0,0-4.883,1.712c-.087.071-.172.143-.255.216a47.8,47.8,0,0,1-8.183-.832,40.151,40.151,0,0,0-7.318-.749A19.44,19.44,0,0,0,90.443,6.169,17.221,17.221,0,0,0,85.5,17.887c0,.386.011.766.029,1.144a11.111,11.111,0,0,0-6.734-2.2,14.064,14.064,0,0,0-3.532.448,17.8,17.8,0,0,0-4.751-6.5A18.61,18.61,0,0,0,58.5,6.133c-3.258,0-7.889,1.091-12.114,6.046a32.6,32.6,0,0,0-4.494-2.622A42.7,42.7,0,0,0,24.462,5.285a24.788,24.788,0,0,0-11.984,2.85,21.8,21.8,0,0,0-7.87,7.317C.6,21.573,0,28.562,0,32.183c0,7.313,2.133,13.77,6.168,18.67a19.916,19.916,0,0,0,15.2,7.645,16.319,16.319,0,0,0,9.862-3.221q.256.858.549,1.687a22.767,22.767,0,0,0,6.373,9.865,18.431,18.431,0,0,0,12.412,4.395,23.084,23.084,0,0,0,15.946-6.918q.761-.752,1.445-1.55A13.967,13.967,0,0,0,79.946,69.33a19.2,19.2,0,0,0,10.212-3.136A23.209,23.209,0,0,0,101.873,69.2a26.119,26.119,0,0,0,13.989-3.935,19.953,19.953,0,0,0,2.108-1.558c.09.116.181.232.275.347a14.5,14.5,0,0,0,11.612,5.212,20.547,20.547,0,0,0,10.832-3.59A22.87,22.87,0,0,0,153.237,69.2a26.663,26.663,0,0,0,12.083-2.838,10.713,10.713,0,0,0,7.421,2.9,37.939,37.939,0,0,0,14.037-2.527,18.921,18.921,0,0,0,7.307-5.2,15.244,15.244,0,0,0,3.541-9.912,13.508,13.508,0,0,0-4.311-9.888Z" transform="translate(0 -0.01)" fill="#fff"/>
        <g id="Groupe_22" data-name="Groupe 22" transform="translate(7.258 7.258)">
          <g id="Groupe_20" data-name="Groupe 20" transform="translate(85.5)">
            <path id="Tracé_63" data-name="Tracé 63" d="M792.8,59.5c.386,0,.835.311.835,1.176,0,2.975-2.055,6.293-5.617,6.293a14.076,14.076,0,0,1-5.456-1c.866,6.4.065,16.668,2.376,16.737.738.034.963.138.963.519-.065,1.625-4.366,2.8-5.938,2.8-1.445,0-2.439-.415-2.439-3.32,0-1.28.77-9.372.77-15.458,0-1.384-.032-2.7-.128-3.769a9.432,9.432,0,0,0-5.3-1.695c-4.558,0-6.227,3.873-6.227,7.816,0,4.15,1.862,8.369,4.269,8.369.321,0,.706.07.706.277a.476.476,0,0,1-.161.311,4.94,4.94,0,0,1-3.724,1.661c-3.594,0-7.479-3.7-7.479-10.1,0-4.15,3.82-10.271,11.908-10.271,5.328,0,7.735,1.591,16.595,1.591,2.921,0,3.594-.9,3.594-1.556,0-.242.193-.381.449-.381Z" transform="translate(-760.25 -59.5)" fill="#c40e0e"/>
            <path id="Tracé_64" data-name="Tracé 64" d="M1000.4,169.486c-3.594,0-7.062-1.868-7.062-6.225,0-3.561,2.439-7.4,6.773-7.4,2.953,0,4.365,1.764,4.365,3.7,0,2.387-2.086,5.049-6.066,5.188.353,1.452,1.187,2.594,2.793,2.594,2.118,0,4.783-2.213,5.874-5.741a3.2,3.2,0,0,1,1.124,2.421c0,3.354-3.98,5.464-7.8,5.464Zm-2.151-6.536a3.314,3.314,0,0,0,2.856-3.009c0-.692-.321-1.21-.931-1.21C999.117,158.731,998.283,160.806,998.251,162.95Z" transform="translate(-964.901 -144.103)" fill="#c40e0e"/>
            <path id="Tracé_65" data-name="Tracé 65" d="M1114.125,159.262c0,.9-.032,2.04-.032,3.147,0,2.283.128,4.5,1.027,4.5,1.091,0,2.7-3.147,3.435-5.083a2.829,2.829,0,0,1,1.156,2.387c0,2.871-3.242,5.567-6.1,5.567-1.252,0-2.7-.415-3.466-2.905a5.358,5.358,0,0,1-5.072,2.939c-2.311,0-3.594-2.421-3.594-5.222,0-3.838,2.439-8.438,7.96-8.438,2.311,0,4.686,1.314,4.686,3.112Zm-4.751,1.28c0-.622-.032-1.659-.61-1.659-1.508,0-2.376,3.32-2.376,5.741,0,1.384.289,2.455.9,2.455C1109.118,167.078,1109.374,162.1,1109.374,160.542Z" transform="translate(-1059.846 -144.358)" fill="#c40e0e"/>
            <path id="Tracé_66" data-name="Tracé 66" d="M1267.2,161.5c0,2.905-3.274,5.6-6.163,5.6-4.59,0-4.045-5.049-4.751-5.049-.931,0-3.114,5.015-5.168,5.015-2.535,0-2.7-5.083-3.338-5.083-.9,0-2.086,5.083-3.98,5.083-1.637,0-3.691-3.32-3.691-9.268,0-1.245,1.894-4.08,4.141-4.08.931,0,1.187.933,1.187,1.729-.032.8-.289,2.317-.289,3.527,0,.933.161,1.659.738,1.659,1.124,0,2.568-7.228,5.456-7.228,2.022,0,1.573,7.539,2.7,7.539s2.055-7.92,5.072-7.92,1.027,11.17,3.531,11.17c1.091,0,2.7-3.147,3.435-5.083a2.941,2.941,0,0,1,1.124,2.387Z" transform="translate(-1181.562 -141.618)" fill="#c40e0e"/>
          </g>
          <g id="Groupe_21" data-name="Groupe 21" transform="translate(0 5.272)">
            <path id="Tracé_67" data-name="Tracé 67" d="M113.278,131.163c4.119,1.109,5.027,4.765,5.027,8.483,0,6.46-7.268,14.488-15.506,14.488-22.715,0-8.6-47.443-21.321-47.443-7.39,0-10.176,6.722-10.176,13.835,0,8.092,3.574,16.641,8.3,16.641.605,0,1.332.131,1.332.522a.909.909,0,0,1-.3.587,9.318,9.318,0,0,1-7.027,3.132c-6.784,0-14.113-6.983-14.113-19.056,0-7.831,3.392-19.642,17.2-19.642,8.541,0,22.108,5.482,22.108,11.877,0,1.175-.061,2.415-.061,3.59,2.241-7.57,6.118-14.618,11.994-14.618,4.846,0,10.842,4.112,10.842,10.572a22.123,22.123,0,0,1-8.3,17.033Zm-12.053.914c4.724,0,7.693-11.681,7.693-17.75,0-2.153-.364-3.59-1.151-3.59-5.27,0-9.873,17.489-9.873,26.625,0,7.5.969,13.182,5.27,13.182,2.969,0,6.179-4.829,6.179-9.462,0-3.59-1.939-5.221-4.664-5.221-2.544,0-3.453-.848-3.453-3.785Z" transform="translate(-59.49 -102.71)" fill="#c40e0e"/>
            <path id="Tracé_68" data-name="Tracé 68" d="M592.815,213.443c0,1.37-.545,5.547-.545,9.331s.484,7.113,2.362,7.113c2.06,0,5.088-5.874,6.481-9.528a5.257,5.257,0,0,1,2.18,4.5c0,5.482-6.179,10.506-11.69,10.506-7.934,0-8.843-11.159-8.843-17.555,0-3.459,4.906-7.635,7.814-7.635,1.757,0,2.241.783,2.241,3.263Zm-9.146-9.592a6.84,6.84,0,0,1,6.784-6.46c2.665,0,4,2.088,4,4.438a5.819,5.819,0,0,1-6.179,5.872c-3.21,0-4.6-1.762-4.6-3.849Z" transform="translate(-518.916 -185.838)" fill="#c40e0e"/>
            <path id="Tracé_69" data-name="Tracé 69" d="M739.056,217.389c-6.784,0-13.326-3.524-13.326-11.746,0-6.722,4.6-13.965,12.781-13.965,5.572,0,8.238,3.328,8.238,6.983,0,4.5-3.937,9.528-11.448,9.789.666,2.74,2.241,4.894,5.27,4.894,4,0,9.025-4.176,11.085-10.832a6.035,6.035,0,0,1,2.121,4.568c0,6.33-7.511,10.311-14.718,10.311Zm4.119-29.365c0,1.37-1.151,1.762-2.18,1.762-2.969,0-9.449-7.57-9.449-10.442,0-1.306,1.817-2.284,3.816-2.284,5.149,0,7.814,4.242,7.814,10.964ZM735,205.057c3.816-.848,5.39-3.654,5.39-5.677,0-1.306-.605-2.284-1.757-2.284-2,0-3.574,3.915-3.635,7.961Z" transform="translate(-644.442 -167.989)" fill="#c40e0e"/>
            <path id="Tracé_70" data-name="Tracé 70" d="M954.85,282.746a4.5,4.5,0,0,1,2.18,4.307c0,4.829-7.875,10.7-13.022,10.7-9.752,0-7.268-11.746-11.448-11.746-3.453,0-5.27-3.72-5.27-7.766,0-4.7,2.423-9.724,7.208-9.724a.661.661,0,0,1,.666.719v1.37c0,2.349.425,5.221,5.331,5.221,7.814,0,1.212,16.51,7.875,16.51,2.06,0,5.088-5.938,6.481-9.592Z" transform="translate(-821.409 -248.289)" fill="#c40e0e"/>
            <path id="Tracé_71" data-name="Tracé 71" d="M1160.036,322.581c-6.784,0-13.326-3.524-13.326-11.746,0-6.722,4.6-13.965,12.781-13.965,5.572,0,8.238,3.328,8.238,6.983,0,4.5-3.937,9.528-11.448,9.789.666,2.74,2.241,4.894,5.27,4.894,4,0,9.025-4.176,11.085-10.832a6.036,6.036,0,0,1,2.12,4.568c0,6.33-7.511,10.311-14.718,10.311Zm-4.058-12.334c3.816-.848,5.39-3.654,5.39-5.677,0-1.306-.605-2.284-1.757-2.284-2,0-3.574,3.915-3.635,7.961Z" transform="translate(-1014.058 -273.18)" fill="#c40e0e"/>
            <path id="Tracé_72" data-name="Tracé 72" d="M1349.1,315.587c-2.483,0-3.817-2.023-3.817-4.96.425,0,1.03.065,1.7.065,1.212,0,2.483-.261,2.483-1.7,0-3.785-9.63-6.069-9.63-12.726,0-3.785,4.664-7.439,8.3-7.439,1.7,0,4,.522,4,3.72-.848,0-1.393,1.175-1.393,1.958,0,2.545,6.724,5.743,6.724,12.856a7.032,7.032,0,0,1-1.091,3.524c3.271-1.435,6.663-5.155,8.3-10.31a6.082,6.082,0,0,1,2.06,4.633C1366.724,313.825,1355.518,315.587,1349.1,315.587Z" transform="translate(-1183.615 -266.121)" fill="#c40e0e"/>
          </g>
        </g>
      </g>
    </g>
  </g>
</svg>
