<svg xmlns="http://www.w3.org/2000/svg" xmlns:xlink="http://www.w3.org/1999/xlink" width="593.929" height="386.877" viewBox="0 0 593.929 386.877">
  <defs>
    <filter id="match" x="106.761" y="94.778" width="461.234" height="292.099" filterUnits="userSpaceOnUse">
      <feOffset dy="3" input="SourceAlpha"/>
      <feGaussianBlur stdDeviation="7.5" result="blur"/>
      <feFlood flood-opacity="0.161"/>
      <feComposite operator="in" in2="blur"/>
      <feComposite in="SourceGraphic"/>
    </filter>
    <filter id="Tracé_110" x="239.982" y="70.524" width="78.492" height="111.474" filterUnits="userSpaceOnUse">
      <feOffset dy="3" input="SourceAlpha"/>
      <feGaussianBlur stdDeviation="7.5" result="blur-2"/>
      <feFlood flood-opacity="0.161"/>
      <feComposite operator="in" in2="blur-2"/>
      <feComposite in="SourceGraphic"/>
    </filter>
    <filter id="Tracé_111" x="269.031" y="94.2" width="89.299" height="87.754" filterUnits="userSpaceOnUse">
      <feOffset dy="3" input="SourceAlpha"/>
      <feGaussianBlur stdDeviation="7.5" result="blur-3"/>
      <feFlood flood-opacity="0.161"/>
      <feComposite operator="in" in2="blur-3"/>
      <feComposite in="SourceGraphic"/>
    </filter>
    <filter id="Tracé_112" x="306.921" y="94.437" width="99.473" height="87.578" filterUnits="userSpaceOnUse">
      <feOffset dy="3" input="SourceAlpha"/>
      <feGaussianBlur stdDeviation="7.5" result="blur-4"/>
      <feFlood flood-opacity="0.161"/>
      <feComposite operator="in" in2="blur-4"/>
      <feComposite in="SourceGraphic"/>
    </filter>
    <filter id="Tracé_113" x="338.204" y="0" width="179.646" height="235.331" filterUnits="userSpaceOnUse">
      <feOffset dy="3" input="SourceAlpha"/>
      <feGaussianBlur stdDeviation="7.5" result="blur-5"/>
      <feFlood flood-opacity="0.251"/>
      <feComposite operator="in" in2="blur-5"/>
      <feComposite in="SourceGraphic"/>
    </filter>
  </defs>
  <g id="Calque_1-2" transform="translate(0.032 19.503)">
    <g id="Groupe_45" data-name="Groupe 45" transform="translate(-0.032 -0.003)">
      <text id="Trouve" transform="matrix(1, -0.005, 0.005, 1, 0.526, 184.751)" fill="#fff" font-size="102" font-family="MerengueScript-Regular, Merengue Script"><tspan x="0" y="0">Trouve</tspan></text>
      <g transform="matrix(1, 0, 0, 1, 0, -19.5)" filter="url(#match)">
        <text id="match-2" data-name="match" transform="matrix(1, -0.01, 0.01, 1, 130.09, 280.38)" fill="#fff" font-size="161" font-family="MerengueScript-Regular, Merengue Script"><tspan x="0" y="0">match</tspan></text>
      </g>
      <path id="Tracé_109" data-name="Tracé 109" d="M643.315,212.78l-.07-13.651c-.088-17.1-.808-32.473-7.383-32.438-3.687.018-4.653-.492-4.662-2.572-.044-8.12,19.173-13.915,26.863-13.958,7.374-.035,12.835,1.835,12.914,16.522.061,12.264-8.551,52.384-8.445,73.462a31.379,31.379,0,0,0,.184,4.144c-2.555,1.4-6.409,1.756-11.694,1.791C644.131,246.113,643.4,230.223,643.315,212.78Zm23.176,47.906c.035,7.427-2.967,15.047-10.666,15.082-7.532.035-13.958-2.7-13.985-7.532-.035-7.251,3.125-15.907,12.264-15.951C660.2,252.25,666.465,255.331,666.491,260.686Z" transform="translate(-77.049 -18.333)" fill="#fff"/>
      <g id="Groupe_43" data-name="Groupe 43" transform="translate(262.482 70.524)">
        <g transform="matrix(1, 0, 0, 1, -262.48, -90.02)" filter="url(#Tracé_110)">
          <path id="Tracé_110-2" data-name="Tracé 110" d="M302.621,107.8c-.8,0-1.607-.1-2.23-.1-.535,0-1.431-.641-1.431-1.176-.018-3.45,1.308-4.969,3.441-5.733-.105-2.59-.114-5.18-.132-7.55.044-8.3,8.041-12.879,14.45-12.914a4.85,4.85,0,0,1,4.828,4.828c0,.325-.263.544-.8.544-.983,0-2.107,5.838-2.871,13.721a15.814,15.814,0,0,0,7.286-3.7,14.48,14.48,0,0,1,1.185,5.926c.035,6.795-4.056,7.682-8.954,7.708h-.36c-.246,4.214-.4,8.524-.369,15.328.132,7.875.334,13.16,3.1,13.151,3.029-.018,7.427-9.859,9.446-15.907,1.966,1.282,3.231,4.3,3.239,7.427.044,8.954-8.9,17.417-16.829,17.452-8.726.044-11.948-20.437-13.019-39Z" transform="translate(-36.48 9.69)" fill="#fff"/>
        </g>
        <g transform="matrix(1, 0, 0, 1, -262.48, -90.02)" filter="url(#Tracé_111)">
          <path id="Tracé_111-2" data-name="Tracé 111" d="M376.348,120.337c.035,6.795-6.356,11.685-13.028,13.23-2.089,8.753-8.015,16.443-17.637,16.487-8.814.044-13.581-9.429-13.634-19.349-.061-11.334,5.935-23.334,18.848-23.4,8.551-.044,13.045,8.243,13.361,17.523a20.977,20.977,0,0,0,10.9-9.446,8.712,8.712,0,0,1,1.185,4.96ZM353.707,133.5a14.291,14.291,0,0,1-7.769-4.056c.035,6.154,1.4,11.966,3.977,11.957,1.958-.009,3.187-3.468,3.793-7.892Zm-4.188-17.461c-1.062.439-1.773,2.168-1.765,4,.018,2.809,1.633,6.031,6.18,6.549-.211-5.61-1.484-10.675-3.88-10.666C349.88,115.93,349.7,116.035,349.52,116.044Z" transform="translate(-40.52 6.4)" fill="#fff"/>
        </g>
        <g transform="matrix(1, 0, 0, 1, -262.48, -90.02)" filter="url(#Tracé_112)">
          <path id="Tracé_112-2" data-name="Tracé 112" d="M429.683,132.423c.044,9.06-9,17.523-17.013,17.567-12.738.061-6.145-26.056-10.684-27.048-4.223-.931-10.859,27.162-19.322,27.206-4.539.026-7.4-19.928-7.453-28.988-.035-6.365,7.322-12.773,11.334-12.791,2.941-.018,3.31,2.9,3.318,5.381.018,3.125-.4,7.769-.386,11.334.246-1.835,3.31-20.086,20.148-17.207,9.4,1.607.5,33.07,7.444,33.035,3.029-.018,7.427-9.859,9.446-15.907,1.966,1.4,3.143,4.407,3.152,7.427Z" transform="translate(-45.79 6.37)" fill="#fff"/>
        </g>
      </g>
      <g id="Groupe_44" data-name="Groupe 44" transform="translate(360.704)">
        <g transform="matrix(1, 0, 0, 1, -360.7, -19.5)" filter="url(#Tracé_113)">
          <path id="Tracé_113-2" data-name="Tracé 113" d="M480.387,189.685a1.605,1.605,0,0,1-2.563.009c-1.694-2.221-3.354-4.381-4.986-6.549q-13.458-17.9-25.819-36.573a402.225,402.225,0,0,1-23.712-40.2,143.056,143.056,0,0,1-10.833-27.092,51.866,51.866,0,0,1-1.124-20.3,65.746,65.746,0,0,1,12.018-30.709A65.65,65.65,0,0,1,460.959,2.344C478.385-2.178,495.188-.211,510.9,8.629c17.338,9.753,28.277,24.546,32.93,43.912a62.186,62.186,0,0,1,1.659,14.582,50.273,50.273,0,0,1-2.116,13.493c-2.862,10.3-7.243,19.981-12.053,29.479A442.5,442.5,0,0,1,507.8,150.32q-13.023,20.134-27.381,39.347a.027.027,0,0,1-.009.018Z" transform="translate(-50.14 19.5)" fill="#fc7272"/>
        </g>
        <path id="Tracé_114" data-name="Tracé 114" d="M455.924,105.689a30.845,30.845,0,1,1,.009,0Z" transform="translate(-414.211 -3.483)" fill="#fff"/>
        <path id="Tracé_115" data-name="Tracé 115" d="M481.877,100.187c-10.324-7.322-32.087-18.752-32.087-31.393,0-19.129,27.539-22.29,32.087-3.915,4.53-18.374,32.078-15.205,32.078,3.915,0,12.642-21.772,24.08-32.078,31.393M461.721,75.914a16.054,16.054,0,0,1-2.493-3.529,8.555,8.555,0,0,1-.983-3.371,9.584,9.584,0,0,1,1.168-5.61,8.655,8.655,0,0,1,3.9-3.275,2.239,2.239,0,1,0-1.861-4.073,13,13,0,0,0-5.864,5,13.852,13.852,0,0,0-1.8,8.191,12.639,12.639,0,0,0,1.44,5.144,20.883,20.883,0,0,0,3.187,4.512,2.231,2.231,0,1,0,3.31-2.994Zm27.2-8.006a11.318,11.318,0,0,1,3.152-5.6,10.906,10.906,0,0,1,5.715-2.774,2.239,2.239,0,0,0-.746-4.416,15.446,15.446,0,0,0-8.033,3.933,15.74,15.74,0,0,0-4.442,7.8,2.238,2.238,0,0,0,4.346,1.071Z" transform="translate(-415.601 -6.426)" fill="#c40e0e" fill-rule="evenodd"/>
      </g>
    </g>
  </g>
</svg>
