<svg xmlns="http://www.w3.org/2000/svg" width="173.811" height="87.701" viewBox="0 0 173.811 87.701">
  <path id="Tracé_74" data-name="Tracé 74" d="M169.4,36.779a7.263,7.263,0,0,0-9.931-.084c-.4-.509-.793-.975-1.163-1.4a7.3,7.3,0,0,0,.194-1.677,10.655,10.655,0,0,0-4.636-9.233,11.973,11.973,0,0,0-6.821-1.932,13.756,13.756,0,0,0-2.469.231c-.076-.168-.154-.337-.236-.5a7.251,7.251,0,0,0-1.869-2.364,7.708,7.708,0,0,0,.081-1.122A10.511,10.511,0,0,0,131.854,8.353a20.3,20.3,0,0,0-9.779,2.617,11.914,11.914,0,0,0-2.988-5.847,13.1,13.1,0,0,0-9.725-3.958A20.282,20.282,0,0,0,98.223,4.69c-4.875,3.4-7.56,8.841-7.56,15.306,0,1.628,0,3.22-.01,4.784a16.22,16.22,0,0,0-6.452-1.3,19.873,19.873,0,0,0-15.9,7.431c-.325.406-.632.826-.926,1.258-.643-.807-1.307-1.616-1.981-2.43a20.085,20.085,0,0,0,4.124-3.1,17.628,17.628,0,0,0,5.616-12.4A12.938,12.938,0,0,0,69.8,3.573C66.668,1.2,62.448,0,57.266,0c-8.348,0-14.127,2.77-17.96,5.819A28.394,28.394,0,0,0,25.751,2.053C12.954,2.053,0,11.72,0,30.194A28.27,28.27,0,0,0,6.632,48.939q.447.509.917.986-.458.416-.889.863A17.228,17.228,0,0,0,1.715,62.511,18.688,18.688,0,0,0,5.764,74.579a13.953,13.953,0,0,0,10.7,5.3,12.24,12.24,0,0,0,3.178-.415,9.089,9.089,0,0,0,9.056,6.226A18.657,18.657,0,0,0,34.859,84.4a14.8,14.8,0,0,0,2.718-1.371,15.835,15.835,0,0,0,6.916,1.514,17.946,17.946,0,0,0,5.462-.851,10.216,10.216,0,0,0,4.267.92,13.633,13.633,0,0,0,4.554-.757,10.973,10.973,0,0,0,3.988.721,12.822,12.822,0,0,0,4.593-.885,8.911,8.911,0,0,0,3.885.92,8.545,8.545,0,0,0,3.579-.806,8.933,8.933,0,0,0,3.742.806,8.806,8.806,0,0,0,4.5-1.24,11.64,11.64,0,0,0,5.419,1.276,13.716,13.716,0,0,0,8.19-2.888q.417.564.87,1.078A14.263,14.263,0,0,0,108.541,87.7c5.732,0,10.171-1.91,13.193-5.678,2.678-3.338,3.98-7.909,3.98-13.975a42.8,42.8,0,0,0-.231-4.334,11.441,11.441,0,0,0,5.357,1.328,19.191,19.191,0,0,0,9.775-2.859,10.893,10.893,0,0,0,7.444,2.859,39.435,39.435,0,0,0,14.587-2.623,19.5,19.5,0,0,0,7.531-5.354,15.645,15.645,0,0,0,3.633-10.171A13.8,13.8,0,0,0,169.4,36.777Z" transform="translate(0 0)" fill="#fff"/>
</svg>
